<svg width="387" height="325" viewBox="0 0 387 325" fill="none" xmlns="http://www.w3.org/2000/svg">
<g clip-path="url(#clip0)">
<path d="M7.45962 199.162C11.8996 256.933 53.5612 305.329 110.343 316.862C140.362 322.959 173.846 318.479 203.051 287.492C255.258 232.098 218.933 181.217 191.936 155.345C178.897 142.826 167.67 128.547 158.58 112.923C142.195 84.8227 107.767 47.4559 52.1478 86.9344C11.8351 115.548 4.50216 160.681 7.45962 199.162Z" fill="#E0F2F1"/>
<path d="M229.5 313.492C229.5 319.83 190.288 324.965 141.835 324.998H141.395C117.744 324.998 96.2668 323.78 80.441 321.805C79.7636 321.715 79.0957 321.63 78.442 321.54C75.7515 321.185 73.2363 320.801 70.9199 320.403C59.8499 318.475 53.2894 316.083 53.2894 313.492C53.2894 311.394 57.581 309.432 65.0794 307.737C69.0394 306.841 73.89 306.027 79.4794 305.307C80.5073 305.169 81.5621 305.04 82.6436 304.918C98.2326 303.095 118.824 301.986 141.395 301.986C145.781 301.986 150.096 302.029 154.312 302.109C196.844 302.924 229.5 307.708 229.5 313.492Z" fill="#3F3D56"/>
<path d="M386.592 172.498H256.097V239.377H386.592V172.498Z" fill="#F2F2F2"/>
<path d="M224.289 0.407776H93.7935V67.2866H224.289V0.407776Z" fill="#F2F2F2"/>
<path d="M224.697 67.6944H93.3857V0H224.697V67.6944ZM94.2013 66.8788H223.881V0.815593H94.2013V66.8788Z" fill="#009688"/>
<path d="M386.592 0.407776H256.097V67.2866H386.592V0.407776Z" fill="#F2F2F2"/>
<path d="M224.289 86.4531H93.7935V153.332H224.289V86.4531Z" fill="#F2F2F2"/>
<path d="M386.592 86.4531H256.097V153.332H386.592V86.4531Z" fill="#F2F2F2"/>
<path d="M224.289 172.498H93.7935V239.377H224.289V172.498Z" fill="#F2F2F2"/>
<path d="M16.7197 50.5669C25.9537 50.5669 33.4394 43.0812 33.4394 33.8472C33.4394 24.6132 25.9537 17.1275 16.7197 17.1275C7.48567 17.1275 0 24.6132 0 33.8472C0 43.0812 7.48567 50.5669 16.7197 50.5669Z" fill="#F2F2F2"/>
<path d="M63.6165 17.1275C60.3096 17.1275 57.077 18.1081 54.3275 19.9453C51.5779 21.7825 49.4349 24.3937 48.1694 27.4489C46.904 30.504 46.5729 33.8658 47.218 37.1091C47.8631 40.3524 49.4555 43.3315 51.7938 45.6698C54.1321 48.0081 57.1113 49.6005 60.3546 50.2457C63.5979 50.8908 66.9597 50.5597 70.0148 49.2942C73.0699 48.0287 75.6812 45.8857 77.5184 43.1362C79.3556 40.3866 80.3362 37.154 80.3362 33.8472C80.3362 29.4129 78.5746 25.1601 75.4391 22.0246C72.3035 18.889 68.0508 17.1275 63.6165 17.1275ZM70.862 40.0589L69.4204 41.5006L63.4126 35.4927L57.4047 41.5006L55.9631 40.0589L61.9709 34.0511L55.1475 27.2277L56.5891 25.786L63.4126 32.6095L70.236 25.7861L71.6776 27.2277L64.8542 34.0511L70.862 40.0589Z" fill="#F2F2F2"/>
<path d="M15.0315 41.7841L7.34241 31.6075L8.96928 30.3778L15.1455 38.5523L32.4672 18.7003L34.0037 20.0407L15.0315 41.7841Z" fill="#009688"/>
<path d="M210.081 239.239C204.778 238.341 199.679 237.569 194.782 236.925L196.718 233.172C196.065 232.945 193.197 235.094 193.197 235.094L195.738 224.2C192.455 224.596 190.786 235.719 190.786 235.719L187.118 231.959L188.894 236.187C176.013 234.63 163.053 233.814 150.078 233.744L151.735 230.532C151.082 230.305 148.214 232.454 148.214 232.454L150.755 221.56C147.472 221.956 145.803 233.08 145.803 233.08L142.135 229.319L144.016 233.797C136.557 233.92 129.109 234.426 121.702 235.313C123.378 230.309 129.071 225.549 129.071 225.549C124.723 226.842 122.443 229.009 121.251 231.029C121.144 220.704 122.861 210.441 126.323 200.712C126.323 200.712 117.336 220.267 118.483 233.393L118.62 235.724C111.002 236.814 108.005 239.377 108.005 239.377L210.081 239.239Z" fill="#3F3D56"/>
<path d="M147.473 120.388C155.438 120.388 161.896 113.93 161.896 105.965C161.896 97.9999 155.438 91.5427 147.473 91.5427C139.508 91.5427 133.051 97.9999 133.051 105.965C133.051 113.93 139.508 120.388 147.473 120.388Z" fill="#FF6584"/>
<path d="M302.238 197.25L300.547 195.897L310.016 187.443H334.026V194.883L318.47 205.366L302.238 197.25Z" fill="#3F3D56"/>
<path d="M338.404 192.186V187.612H335.216V188.732L334.026 187.443L326.248 195.897L323.205 197.926L318.486 232.405L325.603 239.522H342.142V196.236L338.404 192.186Z" fill="#CCCCCC"/>
<path d="M326.248 195.897H300.547V239.522H326.248V195.897Z" fill="#F2F2F2"/>
<path d="M315.257 228.869H310.523V239.522H315.257V228.869Z" fill="#CCCCCC"/>
<path d="M305.45 231.913V230.222H303.421V231.913H305.281H305.45Z" fill="#3F3D56"/>
<path d="M305.281 233.266H303.421V234.956H305.45V233.266H305.281Z" fill="#3F3D56"/>
<path d="M308.832 230.222H306.803V231.913H308.832V230.222Z" fill="#3F3D56"/>
<path d="M308.832 233.266H306.803V234.956H308.832V233.266Z" fill="#3F3D56"/>
<path d="M319.316 231.913V230.222H317.287V231.913H319.147H319.316Z" fill="#3F3D56"/>
<path d="M319.147 233.266H317.287V234.956H319.316V233.266H319.147Z" fill="#3F3D56"/>
<path d="M322.697 230.222H320.668V231.913H322.697V230.222Z" fill="#3F3D56"/>
<path d="M322.697 233.266H320.668V234.956H322.697V233.266Z" fill="#3F3D56"/>
<path d="M333.519 198.096V196.404H331.49V198.096H333.35H333.519Z" fill="#3F3D56"/>
<path d="M333.35 199.448H331.49V201.139H333.519V199.448H333.35Z" fill="#3F3D56"/>
<path d="M336.901 196.405H334.872V198.096H336.901V196.405Z" fill="#3F3D56"/>
<path d="M336.901 199.448H334.872V201.139H336.901V199.448Z" fill="#3F3D56"/>
<path d="M333.519 207.565V205.873H331.49V207.565H333.35H333.519Z" fill="#3F3D56"/>
<path d="M333.35 208.917H331.49V210.608H333.519V208.917H333.35Z" fill="#3F3D56"/>
<path d="M336.901 205.874H334.872V207.564H336.901V205.874Z" fill="#3F3D56"/>
<path d="M336.901 208.917H334.872V210.608H336.901V208.917Z" fill="#3F3D56"/>
<path d="M333.519 217.033V215.342H331.49V217.033H333.35H333.519Z" fill="#3F3D56"/>
<path d="M333.35 218.386H331.49V220.077H333.519V218.386H333.35Z" fill="#3F3D56"/>
<path d="M336.901 215.342H334.872V217.033H336.901V215.342Z" fill="#3F3D56"/>
<path d="M336.901 218.386H334.872V220.077H336.901V218.386Z" fill="#3F3D56"/>
<path d="M333.519 226.502V224.811H331.49V226.502H333.35H333.519Z" fill="#3F3D56"/>
<path d="M333.35 227.855H331.49V229.546H333.519V227.855H333.35Z" fill="#3F3D56"/>
<path d="M336.901 224.811H334.872V226.502H336.901V224.811Z" fill="#3F3D56"/>
<path d="M336.901 227.855H334.872V229.546H336.901V227.855Z" fill="#3F3D56"/>
<path d="M323.036 198.096H303.421V202.154H323.036V198.096Z" fill="#3F3D56"/>
<path d="M323.036 206.212H303.421V210.27H323.036V206.212Z" fill="#3F3D56"/>
<path d="M323.036 214.328H303.421V218.386H323.036V214.328Z" fill="#3F3D56"/>
<path d="M323.036 222.444H303.421V226.502H323.036V222.444Z" fill="#3F3D56"/>
<path d="M147.555 194.773H164.768V190.618H174.266V194.773H192.073V213.174H174.266V236.324H164.768V213.174H147.555L138.651 203.084L147.555 194.773Z" fill="#3F3D56"/>
<path d="M198.19 153.332H197.374C197.374 142.733 193.164 132.568 185.669 125.073C178.174 117.578 168.009 113.368 157.41 113.368C146.811 113.368 136.646 117.578 129.151 125.073C121.656 132.568 117.446 142.733 117.446 153.332H116.63C116.634 142.519 120.932 132.15 128.579 124.505C136.226 116.86 146.597 112.565 157.41 112.565C168.223 112.565 178.594 116.86 186.241 124.505C193.888 132.15 198.186 142.519 198.19 153.332Z" fill="#3F3D56"/>
<path d="M137.986 112.348L136.943 112.35L137.021 153.518L138.063 153.516L137.986 112.348Z" fill="#3F3D56"/>
<path d="M147.613 117.577C147.706 131.972 137.601 143.708 137.601 143.708C137.601 143.708 127.343 132.104 127.25 117.709C127.157 103.314 137.262 91.5783 137.262 91.5783C137.262 91.5783 147.52 103.182 147.613 117.577Z" fill="#6C63FF"/>
<path opacity="0.1" d="M147.613 117.577C147.706 131.972 137.601 143.708 137.601 143.708C137.601 143.708 127.343 132.104 127.25 117.709C127.157 103.314 137.262 91.5783 137.262 91.5783C137.262 91.5783 147.52 103.182 147.613 117.577Z" fill="black"/>
<path d="M124.437 112.374L123.395 112.376L123.472 153.544L124.514 153.542L124.437 112.374Z" fill="#3F3D56"/>
<path d="M134.064 117.603C134.158 131.998 124.052 143.733 124.052 143.733C124.052 143.733 113.794 132.13 113.701 117.735C113.608 103.339 123.714 91.6037 123.714 91.6037C123.714 91.6037 133.971 103.207 134.064 117.603Z" fill="#6C63FF"/>
<path d="M193.837 121.012H193.012V153.603H193.837V121.012Z" fill="#3F3D56"/>
<path d="M201.452 125.165C201.504 136.562 193.486 145.837 193.486 145.837C193.486 145.837 185.383 136.636 185.331 125.24C185.278 113.843 193.296 104.567 193.296 104.567C193.296 104.567 201.399 113.769 201.452 125.165Z" fill="#009688"/>
<path d="M319.49 149.273C335.153 149.273 347.851 136.576 347.851 120.912C347.851 105.248 335.153 92.5505 319.49 92.5505C303.826 92.5505 291.128 105.248 291.128 120.912C291.128 136.576 303.826 149.273 319.49 149.273Z" fill="#3F3D56"/>
<path d="M322.326 110.353V122.225H305.068L301.879 126.051L302.243 122.225H300.692V110.353H322.326Z" fill="#009688"/>
<path opacity="0.1" d="M322.326 114.442H314.543V122.225H322.326V114.442Z" fill="black"/>
<path d="M316.258 116.157H337.892V128.03H336.34L336.705 131.855L333.517 128.03H316.258V116.157Z" fill="#009688"/>
<path opacity="0.1" d="M302.011 127.965C304.634 127.965 306.76 127.758 306.76 127.502C306.76 127.246 304.634 127.039 302.011 127.039C299.389 127.039 297.262 127.246 297.262 127.502C297.262 127.758 299.389 127.965 302.011 127.965Z" fill="black"/>
<path opacity="0.1" d="M336.705 134.229C339.692 134.229 342.113 133.993 342.113 133.702C342.113 133.41 339.692 133.174 336.705 133.174C333.718 133.174 331.296 133.41 331.296 133.702C331.296 133.993 333.718 134.229 336.705 134.229Z" fill="black"/>
<path d="M335.59 8.71957H316.849C315.945 8.71957 315.068 9.02725 314.361 9.59205C313.655 10.1568 313.162 10.9451 312.963 11.8274L303.493 53.8299C303.39 54.2881 303.388 54.7633 303.488 55.2222C303.588 55.6811 303.787 56.1126 304.071 56.4865C304.355 56.8604 304.718 57.1676 305.133 57.3866C305.549 57.6056 306.007 57.731 306.476 57.7541L325.742 58.7034C326.774 58.7542 327.789 58.4279 328.597 57.7855C329.406 57.143 329.953 56.2282 330.137 55.2118L335.509 25.5155L335.909 25.6297L336.936 20.0012L336.525 19.8983L338.024 11.609C338.089 11.254 338.074 10.8891 337.981 10.5405C337.888 10.1919 337.719 9.86803 337.487 9.59208C337.254 9.31613 336.964 9.09486 336.636 8.94405C336.308 8.79323 335.951 8.71658 335.59 8.71957Z" fill="#3F3D56"/>
<path d="M319.316 9.62506H317.129C316.5 9.62506 315.891 9.83993 315.402 10.234C314.912 10.628 314.573 11.1776 314.439 11.7914L305.349 53.4513C305.297 53.6911 305.297 53.9395 305.349 54.1793C305.402 54.4191 305.505 54.6448 305.653 54.841C305.801 55.0371 305.989 55.1991 306.205 55.3158C306.421 55.4325 306.66 55.5013 306.905 55.5173L326.108 56.7759C326.65 56.8114 327.186 56.6462 327.614 56.3118C328.041 55.9774 328.331 55.4972 328.427 54.9629L336.183 11.9033C336.233 11.6246 336.222 11.3383 336.149 11.0646C336.077 10.7908 335.945 10.5363 335.763 10.3191C335.582 10.1018 335.355 9.92704 335.098 9.80713C334.842 9.68721 334.562 9.62506 334.279 9.62506H332.203C332.002 9.62506 331.807 9.69128 331.648 9.81346C331.488 9.93564 331.374 10.107 331.321 10.3009C331.275 10.4722 331.174 10.6234 331.033 10.7313C330.893 10.8391 330.72 10.8976 330.543 10.8976H320.691C320.343 10.8976 320.009 10.7665 319.754 10.5306C319.499 10.2947 319.343 9.97127 319.316 9.62506Z" fill="#009688"/>
<path d="M161.67 61.0488C176.659 61.0488 188.809 48.8979 188.809 33.9091C188.809 18.9202 176.659 6.76935 161.67 6.76935C146.681 6.76935 134.53 18.9202 134.53 33.9091C134.53 48.8979 146.681 61.0488 161.67 61.0488Z" fill="#009688"/>
<path d="M185.302 50.9486C180.091 50.9489 168.584 45.5969 158.35 39.3287C145.651 31.5505 133.317 21.3839 135.474 17.8634C136.083 16.8686 137.594 16.6084 140.092 17.0671L139.913 18.0426C137.978 17.6865 136.669 17.8108 136.319 18.3812C135.81 19.2134 136.933 21.6292 141.616 25.9138C145.883 29.8187 152.01 34.2824 158.868 38.483C165.726 42.6836 172.487 46.1134 177.904 48.1406C183.848 50.3653 186.511 50.2681 187.02 49.4366C187.37 48.8653 186.884 47.6409 185.686 46.0769L186.473 45.4739C188.02 47.4937 188.476 48.9592 187.866 49.9544C187.447 50.6381 186.557 50.9486 185.302 50.9486Z" fill="#3F3D56"/>
<path d="M158.32 25.5103C161.386 25.5103 163.871 23.0249 163.871 19.959C163.871 16.8931 161.386 14.4077 158.32 14.4077C155.254 14.4077 152.769 16.8931 152.769 19.959C152.769 23.0249 155.254 25.5103 158.32 25.5103Z" fill="white"/>
<path d="M159.928 54.0918C161.972 54.0918 163.629 52.4349 163.629 50.391C163.629 48.347 161.972 46.6901 159.928 46.6901C157.884 46.6901 156.227 48.347 156.227 50.391C156.227 52.4349 157.884 54.0918 159.928 54.0918Z" fill="white"/>
<path d="M172.672 41.4042C174.716 41.4042 176.373 39.7473 176.373 37.7034C176.373 35.6594 174.716 34.0025 172.672 34.0025C170.628 34.0025 168.971 35.6594 168.971 37.7034C168.971 39.7473 170.628 41.4042 172.672 41.4042Z" fill="white"/>
<path d="M387 239.785H255.689V172.091H387L387 239.785ZM256.505 238.969H386.184V172.906H256.505V238.969Z" fill="#009688"/>
<path d="M386.184 154.147H254.874V86.4531H386.184V154.147ZM255.689 153.332H385.369V87.2687H255.689V153.332Z" fill="#009688"/>
<path d="M93.0392 298.634C95.2655 306.863 102.891 311.96 102.891 311.96C102.891 311.96 106.907 303.714 104.681 295.484C102.455 287.255 94.829 282.158 94.829 282.158C94.829 282.158 90.813 290.404 93.0392 298.634Z" fill="#3F3D56"/>
<path d="M96.3107 296.865C102.42 302.812 103.166 311.953 103.166 311.953C103.166 311.953 94.0074 311.453 87.8984 305.507C81.7894 299.56 81.0432 290.418 81.0432 290.418C81.0432 290.418 90.2017 290.918 96.3107 296.865Z" fill="#009688"/>
<path d="M117.652 183.928L111.142 184.651C111.142 184.651 108.248 197.672 111.142 215.034C114.036 232.395 117.652 249.757 117.652 249.757C117.652 249.757 120.546 306.181 121.993 306.904C123.44 307.628 136.461 311.968 137.184 307.628C137.907 303.288 137.907 204.183 137.907 204.183L148.035 251.927C148.035 251.927 149.482 311.968 152.375 311.968C155.269 311.968 164.673 311.245 164.673 306.181C164.673 301.117 166.843 234.565 166.843 234.565C166.843 234.565 166.12 185.375 163.226 183.928C160.333 182.481 117.652 183.928 117.652 183.928Z" fill="#2F2E41"/>
<path d="M123.44 304.734C123.44 304.734 116.929 304.011 115.482 304.734C114.036 305.458 111.865 310.521 115.482 313.415C119.099 316.309 128.503 320.649 131.397 320.649C134.291 320.649 137.184 319.202 137.184 319.202L135.737 306.905L123.44 304.734Z" fill="#2F2E41"/>
<path d="M152.375 308.351L153.099 318.479C153.099 318.479 162.503 319.926 163.226 318.479C163.95 317.032 171.183 313.415 171.907 312.692C172.63 311.968 173.354 304.011 169.013 303.288C164.673 302.564 163.226 304.734 163.226 304.734L152.375 308.351Z" fill="#2F2E41"/>
<path d="M169.186 97.8505C169.186 97.8505 185.001 87.6802 184.635 80.693C184.269 73.7057 174.735 51.6748 174.735 51.6748C174.735 51.6748 167.276 36.1676 164.311 42.5051C161.346 48.8425 168.208 55.5886 168.208 55.5886L172.638 77.2L160.6 88.6837L169.186 97.8505Z" fill="#A0616A"/>
<path d="M129.95 83.3767C137.141 83.3767 142.971 77.547 142.971 70.3557C142.971 63.1643 137.141 57.3346 129.95 57.3346C122.759 57.3346 116.929 63.1643 116.929 70.3557C116.929 77.547 122.759 83.3767 129.95 83.3767Z" fill="#A0616A"/>
<path d="M123.44 78.313L125.61 92.0574L141.524 89.1638C141.524 89.1638 140.801 75.4194 140.801 73.9726C140.801 72.5258 123.44 78.313 123.44 78.313Z" fill="#A0616A"/>
<path d="M122.716 92.0574C122.716 92.0574 140.801 87.7171 142.971 89.1639C145.141 90.6106 155.992 92.0574 155.992 92.0574L168.29 110.866L164.673 134.737C164.673 134.737 163.949 173.077 165.396 179.588C166.843 186.098 174.8 186.822 158.162 188.268C141.524 189.715 138.631 187.545 127.056 190.439C115.482 193.332 106.078 188.992 108.972 186.098C111.865 183.205 116.929 136.908 111.142 132.567C105.355 128.227 103.185 105.802 103.185 105.802C103.185 105.802 122.716 95.6744 122.716 92.0574Z" fill="#3F3D56"/>
<path d="M153.822 94.2276L155.992 92.0574L160.333 87.717C160.333 87.717 174.439 93.8659 173.715 96.036C172.992 98.2062 168.29 110.866 168.29 110.866L161.779 113.036L153.822 94.2276Z" fill="#3F3D56"/>
<path d="M134.494 54.5806L134.361 53.5375C133.476 53.5324 132.596 53.6707 131.755 53.947C131.669 53.3179 131.724 52.6777 131.916 52.0725C131.061 52.2922 130.247 52.6462 129.504 53.1212L128.978 51.2175L121.746 54.7815C119.15 56.0609 116.413 57.4667 114.929 59.9513C113.275 62.7213 113.563 66.2811 114.694 69.3028C115.825 72.3245 117.704 74.9986 119.21 77.8517C119.782 79.0786 120.469 80.2483 121.263 81.3451C123.992 84.7479 129.306 85.4354 133.154 83.3817C134.575 82.6237 135.865 81.4909 136.45 79.9907C136.799 79.0937 136.879 78.1176 137.108 77.1826C137.584 75.2381 138.137 71.2242 139.716 69.994C140.411 69.4527 141.789 71.2472 142.365 70.5806C143.845 68.8676 143.534 66.2258 142.615 64.1569C141.733 62.079 140.702 60.0676 139.529 58.1383C139.033 57.3627 134.478 54.4554 134.494 54.5806Z" fill="#2F2E41"/>
<path d="M91.6104 123.163C91.6104 123.163 74.249 139.801 76.4192 148.482C78.5893 157.163 95.9507 182.481 95.9507 182.481C95.9507 182.481 112.589 191.162 114.759 182.481C116.929 173.801 103.185 175.971 103.185 175.971L92.3338 149.929L104.631 132.567L91.6104 123.163Z" fill="#A0616A"/>
<path d="M111.865 107.249L103.185 105.802C103.185 105.802 96.6741 113.036 94.5039 115.929C92.3338 118.823 87.9934 126.057 87.9934 126.057L103.185 136.908L114.759 124.61L111.865 107.249Z" fill="#3F3D56"/>
</g>
<defs>
<clipPath id="clip0">
<rect width="387" height="324.998" fill="white"/>
</clipPath>
</defs>
</svg>
