<svg width="400" height="320" viewBox="0 0 400 320" fill="none" xmlns="http://www.w3.org/2000/svg">
<path d="M2.04183 187.437C-8.9367 117.363 23.387 54.5254 122.607 18.6547C221.827 -17.216 349.467 -3.65068 354.424 79.4274C359.38 162.505 270.549 180.542 180.404 255.336C90.258 330.13 13.0204 257.511 2.04183 187.437Z" fill="#E0F2F1"/>
<g clip-path="url(#clip0)">
<path d="M261.958 320C338.197 320 400 314.448 400 307.599C400 300.75 338.197 295.198 261.958 295.198C185.719 295.198 123.916 300.75 123.916 307.599C123.916 314.448 185.719 320 261.958 320Z" fill="#3F3D56"/>
<path opacity="0.3" d="M194.485 191.625L344.319 191.625V90.2979L194.485 90.2979V191.625Z" fill="#3F3D56"/>
<path d="M334.755 99.5818H290.389V147.858H334.755V99.5818Z" fill="#F2F2F2"/>
<path d="M220.254 102.5H263.026V99.5818H220.254V102.5Z" fill="#F2F2F2"/>
<path d="M290.39 158.203H305.532V155.285H290.39V158.203Z" fill="#F2F2F2"/>
<path d="M290.921 163.508H334.224V160.59H290.921V163.508Z" fill="#F2F2F2"/>
<path d="M211.487 113.11L273.121 113.11V110.192L211.487 110.192V113.11Z" fill="#F2F2F2"/>
<path d="M211.487 121.333L273.121 121.333V118.415L211.487 118.415V121.333Z" fill="#F2F2F2"/>
<path d="M211.487 129.556H273.121V126.638L211.487 126.638V129.556Z" fill="#F2F2F2"/>
<path d="M211.487 137.779H273.121V134.861H211.487V137.779Z" fill="#F2F2F2"/>
<path d="M211.487 146.001H273.121V143.084H211.487V146.001Z" fill="#F2F2F2"/>
<path d="M211.487 154.224H273.121V151.306H211.487V154.224Z" fill="#F2F2F2"/>
<path d="M211.487 162.447H273.121V159.529H211.487V162.447Z" fill="#F2F2F2"/>
<path d="M297.052 127.149C297.709 126.682 298.433 126.319 299.201 126.073C304.065 124.266 309.161 123.158 314.337 122.783C318.838 122.464 323.716 122.843 327.231 125.667C327.778 126.068 328.226 126.588 328.539 127.189C328.982 128.142 328.848 129.249 328.704 130.29C328.672 130.693 328.57 131.088 328.403 131.457C327.93 132.356 326.766 132.671 325.754 132.564C324.742 132.456 323.793 132.028 322.795 131.83C322.178 131.723 321.553 131.659 320.927 131.64L314.668 131.302C310.777 131.092 306.834 130.885 303.017 131.669C301.842 131.88 300.706 132.27 299.651 132.827C298.779 133.316 298.192 134.017 297.383 133.114C295.961 131.528 295.175 128.614 297.052 127.149Z" fill="#2F2E41"/>
<path d="M306.75 129.912C306.75 129.912 315.167 126.144 318.36 130.491C321.553 134.838 316.618 133.1 316.618 133.1L311.104 134.838L305.008 133.679L306.75 129.912Z" fill="#F2F2F2"/>
<path d="M307.185 127.159C307.185 127.159 308.346 132.665 307.475 134.114C306.605 135.563 312.41 137.592 312.41 137.592L317.925 135.273C317.925 135.273 316.473 126.289 317.925 124.55L307.185 127.159Z" fill="#FFB9B9"/>
<path opacity="0.1" d="M307.185 127.159C307.185 127.159 308.346 132.665 307.475 134.114C306.605 135.563 312.41 137.592 312.41 137.592L317.925 135.273C317.925 135.273 316.473 126.289 317.925 124.55L307.185 127.159Z" fill="black"/>
<path d="M320.537 121.652C320.535 123.957 319.617 126.168 317.984 127.798C316.352 129.428 314.138 130.345 311.829 130.346C311.31 130.347 310.793 130.301 310.282 130.207C308.653 129.913 307.141 129.162 305.924 128.04C304.707 126.919 303.836 125.474 303.412 123.876C302.988 122.278 303.03 120.592 303.532 119.016C304.034 117.44 304.976 116.041 306.247 114.98C307.517 113.92 309.065 113.244 310.707 113.031C312.349 112.817 314.018 113.076 315.518 113.776C317.018 114.477 318.287 115.59 319.176 116.985C320.065 118.38 320.537 119.999 320.537 121.652V121.652Z" fill="#FFB9B9"/>
<path d="M325.795 148.123H298.025L298.654 145.394L301.38 133.534L304.531 131.41L304.533 131.407L306.013 130.407L306.749 129.911C306.749 129.911 307.185 130.11 307.687 130.381C307.833 130.463 307.982 130.548 308.131 130.638C308.133 130.635 308.133 130.638 308.133 130.638C308.374 130.777 308.603 130.936 308.819 131.113C308.858 131.15 308.893 131.182 308.928 131.216C309.48 131.768 311.093 134.696 313.76 133.198C313.895 133.124 314.025 133.042 314.15 132.954C314.846 132.473 315.509 131.948 316.135 131.381C316.696 130.869 317.06 130.473 317.357 130.2C317.49 130.067 317.643 129.955 317.809 129.866C317.934 129.8 318.074 129.767 318.215 129.768C319.087 129.768 320.247 131.505 320.247 131.505L320.282 131.606L320.285 131.614L323.948 142.595L325.795 148.123Z" fill="#F2F2F2"/>
<path d="M298.025 148.123H306.441C306.46 147.152 306.409 146.181 306.289 145.216C306.032 143.277 305.399 141.41 305.001 139.495C304.65 137.816 304.48 136.106 304.494 134.391C304.496 134.155 304.501 133.916 304.523 133.678C304.544 133.131 304.702 132.598 304.982 132.129C305.182 131.824 305.455 131.564 305.668 131.272C305.742 131.176 305.807 131.074 305.862 130.967V130.964C305.888 130.911 305.912 130.857 305.933 130.802C305.98 130.675 306.007 130.542 306.013 130.407C306.061 129.532 305.267 128.688 304.409 128.328C303.204 127.876 301.886 127.823 300.649 128.176C299.423 128.53 298.239 129.014 297.116 129.619C296.736 129.805 296.359 129.996 295.995 130.208C295.56 130.454 295.161 130.758 294.807 131.11C293.904 132.041 293.508 133.338 293.189 134.593C292.885 135.552 292.781 136.563 292.884 137.564C292.887 137.596 292.895 137.63 292.9 137.662C293.216 139.314 294.566 140.556 295.286 142.078C296.12 143.845 296.064 145.903 295.732 147.829C295.716 147.927 295.697 148.025 295.679 148.123H298.025V148.123Z" fill="#2F2E41"/>
<path d="M332.285 137.511C331.228 140.979 330.462 144.529 329.992 148.123H317.995C317.681 147.269 317.369 146.414 317.057 145.558C316.808 144.913 316.594 144.254 316.417 143.585C316.227 142.807 316.136 142.009 316.148 141.208C316.148 141.017 316.156 140.824 316.172 140.633C316.173 140.631 316.174 140.629 316.174 140.627C316.174 140.625 316.173 140.623 316.172 140.622C316.245 139.613 316.479 138.621 316.866 137.686C317.043 137.26 317.247 136.847 317.477 136.447C318.034 135.439 318.709 134.489 319.31 133.503C319.684 132.9 320.01 132.268 320.285 131.614C320.284 131.613 320.285 131.611 320.285 131.61C320.286 131.608 320.286 131.607 320.287 131.606C320.646 130.772 320.833 129.874 320.837 128.967C320.819 127.797 318.837 125.757 320.991 125.953C323.932 126.219 326.459 127.908 328.762 129.834C329.376 130.349 329.976 130.882 330.563 131.407C331.472 132.224 332.431 133.115 332.704 134.306C332.748 134.496 332.774 134.69 332.781 134.885C332.766 135.782 332.598 136.67 332.285 137.511V137.511Z" fill="#2F2E41"/>
<path d="M314.302 134.312C314 133.497 313.537 132.751 312.94 132.119C312.338 131.611 311.626 131.25 310.86 131.066C309.867 130.783 308.84 130.636 307.807 130.629C306.578 130.622 305.153 130.951 304.631 132.062C304.216 132.945 304.537 133.989 304.955 134.871C305.133 135.327 305.43 135.728 305.815 136.031C306.345 136.389 307.031 136.377 307.659 136.497C308.634 136.744 309.557 137.162 310.385 137.73L312.538 139.03L316.236 141.262C316.139 141.203 316.173 138.671 316.06 138.256C315.694 136.919 314.87 135.577 314.302 134.312Z" fill="#FFB9B9"/>
<path d="M320.318 117.121C320.163 116.601 319.822 116.157 319.359 115.872C319.383 115.315 319.315 114.758 319.157 114.223C318.629 112.667 317.38 112.756 316.202 112.068C315.69 111.769 315.722 111.505 315.456 111.015C315.107 110.372 314.584 109.84 313.948 109.479C313.191 108.997 312.393 108.502 311.499 108.441C309.619 108.313 308.177 110.079 306.38 110.645C305.588 110.895 304.737 110.905 303.941 111.142C303.145 111.378 302.351 111.941 302.232 112.762C302.177 113.141 302.274 113.53 302.218 113.909C302.108 114.662 301.446 115.189 301.003 115.808C300.024 117.178 300.136 119.112 300.919 120.602C301.084 120.91 301.273 121.205 301.484 121.485C301.549 122.189 301.752 122.874 302.08 123.5C302.863 124.99 304.211 126.104 305.619 127.029C305.504 126.535 305.434 126.031 305.41 125.524C305.39 125.355 305.412 125.184 305.474 125.026C305.631 124.698 306.045 124.611 306.361 124.432C307.015 124.061 307.272 123.239 307.291 122.488C307.31 121.737 307.15 120.985 307.229 120.238C307.232 120.066 307.271 119.897 307.344 119.741C307.417 119.585 307.521 119.446 307.651 119.333C307.892 119.195 308.168 119.13 308.446 119.144C309.786 119.089 311.187 119.065 312.369 118.432C312.75 118.179 313.16 117.972 313.59 117.815C314.595 117.553 315.622 118.256 316.201 119.117C316.78 119.978 317.069 121.002 317.603 121.891C318.138 122.78 319.061 123.573 320.094 123.468C320.152 123.468 320.21 123.456 320.263 123.432C320.316 123.408 320.363 123.374 320.402 123.331C320.447 123.251 320.467 123.159 320.459 123.068L320.517 119.125C320.565 118.451 320.498 117.773 320.318 117.121V117.121Z" fill="#2F2E41"/>
<path d="M297.352 143.452C297.541 145.004 297.655 146.561 297.695 148.123H290.389V141.993C290.427 141.845 290.466 141.699 290.514 141.553C290.971 140.147 291.93 138.969 292.762 137.747C292.802 137.686 292.844 137.625 292.884 137.564C293.238 137.048 293.542 136.5 293.793 135.927C293.912 135.646 294.103 134.285 294.305 134.168C295.171 133.667 295.875 135.81 295.995 136.288C296.42 137.988 296.789 139.704 297.068 141.436C297.177 142.107 297.272 142.779 297.352 143.452Z" fill="#2F2E41"/>
<path d="M334.272 148.123H317.501C317.357 147.787 317.216 147.45 317.067 147.115C316.022 144.754 314.669 142.539 313.045 140.529C312.777 140.263 312.603 139.918 312.549 139.545C312.543 139.39 312.581 139.237 312.657 139.102C312.913 138.627 313.587 138.349 314.135 138.123C314.7 137.896 315.22 137.569 315.67 137.158C316.068 136.8 316.372 136.352 316.557 135.85C316.607 135.703 316.644 135.552 316.669 135.399C316.746 135.5 316.826 135.603 316.903 135.704C317.091 135.954 317.283 136.2 317.477 136.447C319.336 138.832 321.379 141.182 323.948 142.596C324.619 142.969 325.328 143.27 326.063 143.495C326.133 143.526 326.209 143.542 326.286 143.542C326.363 143.542 326.439 143.526 326.509 143.495C326.618 143.406 326.687 143.278 326.703 143.139C326.932 142.184 327.011 141.2 327.179 140.232C327.486 138.471 328.077 136.77 328.929 135.198C329.405 134.314 330.951 131.086 331.931 133.121C332.213 133.707 332.496 134.295 332.782 134.885C332.959 135.259 333.14 135.63 333.321 136.004C333.987 137.191 334.291 138.546 334.195 139.903C334.221 142.646 334.247 145.386 334.272 148.123Z" fill="#2F2E41"/>
<path opacity="0.1" d="M298.025 148.123H299.478L298.654 145.394L297.467 141.46C297.481 142.126 297.442 142.792 297.353 143.452C297.173 144.816 296.782 146.144 296.194 147.389C296.08 147.63 295.958 147.874 295.859 148.123H298.025Z" fill="black"/>
<path opacity="0.1" d="M327.625 139.735C327.42 140.285 327.606 140.892 327.764 141.457C328.221 143.095 328.434 144.791 328.397 146.49C328.404 146.52 328.403 146.551 328.395 146.58C328.386 146.61 328.371 146.636 328.349 146.658C328.328 146.68 328.302 146.696 328.273 146.705C328.243 146.714 328.213 146.716 328.183 146.71C327.513 146.751 326.746 146.755 326.291 146.262L327.625 139.735Z" fill="black"/>
<path opacity="0.3" d="M170.633 91.3409H20.7983V192.668H170.633V91.3409Z" fill="#3F3D56"/>
<path d="M74.7282 100.625H30.3623V148.901H74.7282V100.625Z" fill="#F2F2F2"/>
<path d="M144.863 100.625H102.092V103.543H144.863V100.625Z" fill="#F2F2F2"/>
<path d="M46.0364 156.328H30.8936V159.246H46.0364V156.328Z" fill="#F2F2F2"/>
<path d="M74.1968 161.633H30.8936V164.551H74.1968V161.633Z" fill="#F2F2F2"/>
<path d="M153.63 111.235H91.9963V114.153H153.63V111.235Z" fill="#F2F2F2"/>
<path d="M153.63 119.458H91.9963V122.376H153.63V119.458Z" fill="#F2F2F2"/>
<path d="M153.63 127.681H91.9963V130.599H153.63V127.681Z" fill="#F2F2F2"/>
<path d="M153.63 135.904H91.9963V138.821H153.63V135.904Z" fill="#F2F2F2"/>
<path d="M153.63 144.127H91.9963V147.044H153.63V144.127Z" fill="#F2F2F2"/>
<path d="M153.63 152.349H91.9963V155.267H153.63V152.349Z" fill="#F2F2F2"/>
<path d="M153.63 160.572H91.9963V163.49H153.63V160.572Z" fill="#F2F2F2"/>
<path d="M73.522 149.166H67.7545C67.3108 147.975 66.9167 146.769 66.5723 145.548C66.345 144.113 65.6895 142.779 64.6913 141.721C64.3866 141.381 64.1152 141.014 63.8811 140.623C63.3866 139.659 63.2082 138.565 63.371 137.495C63.4042 137.197 63.4538 136.902 63.5198 136.609C63.7722 135.477 64.1946 134.389 64.5479 133.286C64.6226 133.062 64.7588 132.863 64.941 132.712C65.1233 132.562 65.3442 132.465 65.5787 132.434C65.9589 132.371 66.3494 132.416 66.7051 132.564C66.7838 132.596 66.8593 132.635 66.9309 132.681C67.5605 133.06 67.8873 133.835 68.1503 134.543C69.3538 137.768 70.5563 140.994 71.758 144.219C71.9918 144.845 72.2256 145.473 72.4594 146.103C72.8048 147.026 73.1474 147.949 73.4397 148.89C73.4689 148.983 73.4955 149.074 73.522 149.166Z" fill="#D0CDE1"/>
<path d="M49.5117 106.713C48.0777 107.196 46.7785 108.327 46.4849 109.81C46.3487 110.497 46.4322 111.211 46.3177 111.902C46.052 113.505 44.7918 114.729 43.6296 115.866C42.4673 117.003 41.267 118.325 41.1822 119.947C41.0893 121.724 42.3798 123.388 42.1565 125.153C41.897 127.204 39.7278 128.533 39.1916 130.529C38.8335 131.862 39.2723 133.298 39.9942 134.475C41.3698 136.718 43.7212 138.241 46.2252 139.057C48.7292 139.873 51.396 140.045 54.03 140.072C57.2372 140.106 60.7193 139.831 63.129 137.718C64.5054 136.5 65.3698 134.807 65.5489 132.979C65.7778 130.531 64.7545 128.002 65.4604 125.646C65.9046 124.164 67.0187 122.81 66.8524 121.271C66.6898 119.767 65.374 118.701 64.4713 117.486C63.6285 116.351 63.1171 115.011 62.6159 113.69L60.9009 109.17C60.5638 108.282 60.1936 107.347 59.4422 106.764C58.0357 105.673 55.774 105.887 54.1293 106.112C52.6036 106.321 50.979 106.218 49.5117 106.713Z" fill="#2F2E41"/>
<path d="M50.8383 121.608C50.8383 121.608 51.0062 126.636 50.5026 127.139C49.999 127.642 52.517 130.994 52.517 130.994L57.0493 130.826L59.3993 128.983L57.385 126.301C57.385 126.301 56.5457 121.943 57.2171 120.938C57.8886 119.932 50.8383 121.608 50.8383 121.608Z" fill="#A0616A"/>
<path opacity="0.1" d="M50.8383 121.608C50.8383 121.608 51.0062 126.636 50.5026 127.139C49.999 127.642 52.517 130.994 52.517 130.994L57.0493 130.826L59.3993 128.983L57.385 126.301C57.385 126.301 56.5457 121.943 57.2171 120.938C57.8886 119.932 50.8383 121.608 50.8383 121.608Z" fill="black"/>
<path d="M53.6081 123.536C56.9456 123.536 59.6512 120.834 59.6512 117.502C59.6512 114.17 56.9456 111.468 53.6081 111.468C50.2706 111.468 47.5651 114.17 47.5651 117.502C47.5651 120.834 50.2706 123.536 53.6081 123.536Z" fill="#A0616A"/>
<path d="M56.7055 149.166H61.6043C61.7876 148.835 61.9603 148.49 62.1596 148.177V148.174C62.3774 147.796 62.6836 147.475 63.0522 147.241C63.2865 147.133 63.5084 147.001 63.7137 146.845C63.9102 146.633 64.0492 146.373 64.1175 146.092C64.4549 145.04 64.641 143.945 64.6701 142.84C64.6781 142.469 64.6701 142.092 64.6913 141.721C64.7018 141.43 64.7392 141.142 64.8029 140.859C64.9711 140.283 65.2149 139.731 65.5282 139.219C66.1923 138.012 66.8583 136.805 67.526 135.599C67.6463 135.259 67.6925 134.897 67.6615 134.538C67.6471 134.053 67.4981 133.582 67.2311 133.177C67.1381 133.01 67.0372 132.843 66.9309 132.681C66.5211 132.028 66.0438 131.42 65.5069 130.866C64.3678 129.674 62.9852 128.739 61.4529 128.126C61.2607 128.062 61.0776 127.973 60.9083 127.861C60.7085 127.693 60.5395 127.491 60.4088 127.264C59.8775 126.466 59.2293 125.567 58.2702 125.617C58.1141 125.539 57.944 125.492 57.7698 125.481C57.5955 125.469 57.4207 125.492 57.2554 125.548C57.2049 125.561 57.1553 125.577 57.1066 125.596C56.7401 125.758 56.3843 125.943 56.0413 126.15C55.159 126.608 54.1591 126.789 53.1721 126.67C53.0564 126.662 52.943 126.633 52.8374 126.585C52.7254 126.514 52.622 126.431 52.5292 126.336C52.2868 126.138 51.996 126.007 51.6866 125.958C51.3772 125.908 51.0601 125.942 50.7679 126.055C50.4935 126.152 50.2509 126.323 50.0665 126.548C49.8912 126.768 49.769 127.034 49.575 127.24C49.0729 127.776 48.2441 127.797 47.5108 127.795C45.988 127.752 44.4655 127.892 42.9759 128.211C41.6677 128.501 40.4452 129.091 39.4054 129.935L39.4028 129.938C39.2593 130.06 39.1265 130.185 38.9936 130.317C38.6915 130.602 38.451 130.945 38.287 131.325C38.0851 131.845 38.1116 132.431 37.9283 132.959C37.7264 133.551 37.2774 134.034 37.0968 134.628C36.9587 135.079 36.9772 135.577 36.7488 135.986C36.7594 135.994 36.7674 136.002 36.778 136.01C37.745 136.859 38.5712 137.973 39.5409 138.813C40.1037 139.242 40.5797 139.773 40.9436 140.378C41.0136 140.515 41.0714 140.657 41.1163 140.803C41.2254 141.31 41.2735 141.828 41.2598 142.347C41.382 144.827 42.7289 147.076 44.2352 149.05C44.2644 149.089 44.2936 149.129 44.3255 149.166L56.7055 149.166Z" fill="#D0CDE1"/>
<path d="M40.9437 140.378C40.7152 141.962 40.4849 143.545 40.2529 145.127C40.1474 145.974 39.9895 146.814 39.78 147.641C39.6419 148.153 39.4639 148.654 39.339 149.166H32.4211C32.4247 148.88 32.4469 148.593 32.4876 148.31C32.6657 147.29 32.9552 146.293 33.351 145.336C34.1559 143.166 34.96 140.995 35.7632 138.821C36.1059 137.896 36.4008 136.928 36.778 136.01C36.8445 135.84 36.9162 135.67 36.9932 135.506C37.3944 134.625 38.5075 134.986 39.3311 135.118C39.5572 135.147 39.7776 135.209 39.9846 135.304C40.2349 135.442 40.4461 135.641 40.5983 135.882C41.3794 137.036 41.2093 138.562 41.0074 139.941C40.9862 140.087 40.9649 140.233 40.9437 140.378Z" fill="#D0CDE1"/>
<path d="M62.1595 148.177C62.1702 148.214 62.2844 148.609 62.473 149.166H56.7054C59.564 148.676 62.1595 148.174 62.1595 148.174V148.177Z" fill="#2F2E41"/>
<path d="M54.1117 117.502C57.7273 117.502 60.6583 115.926 60.6583 113.982C60.6583 112.038 57.7273 110.462 54.1117 110.462C50.4961 110.462 47.5651 112.038 47.5651 113.982C47.5651 115.926 50.4961 117.502 54.1117 117.502Z" fill="#2F2E41"/>
<path d="M266.62 128.643H116.785V229.97H266.62V128.643Z" fill="#3F3D56"/>
<path opacity="0.1" d="M244.835 223.074C254.519 223.074 262.369 222.242 262.369 221.217C262.369 220.191 254.519 219.36 244.835 219.36C235.152 219.36 227.302 220.191 227.302 221.217C227.302 222.242 235.152 223.074 244.835 223.074Z" fill="black"/>
<path d="M170.715 137.927H126.349V186.203H170.715V137.927Z" fill="#F2F2F2"/>
<path d="M140.635 160.092C140.779 160.136 140.934 160.128 141.073 160.071C141.213 160.013 141.328 159.91 141.399 159.777C142.012 158.812 140.883 157.567 141.127 156.45C141.323 155.555 142.342 155.024 142.55 154.132C142.752 153.265 142.129 152.288 142.55 151.504C142.88 150.889 143.705 150.728 144.395 150.835C145.085 150.943 145.74 151.246 146.437 151.288C147.366 151.345 148.251 150.937 149.159 150.734C150.068 150.532 151.176 150.611 151.71 151.372C152.396 152.349 151.7 153.709 151.939 154.878C152.129 155.806 152.907 156.575 152.924 157.522C152.93 157.859 152.043 157.587 152.09 157.921C152.137 158.254 151.718 157.961 152.053 157.921C152.19 157.888 152.313 157.812 152.403 157.704C152.494 157.596 152.548 157.463 152.557 157.322C152.597 157.045 153.12 156.952 153.114 156.672C153.1 156.014 154.29 156.458 154.486 155.83C154.937 154.367 154.844 152.79 154.225 151.39C153.906 150.817 153.652 150.212 153.466 149.584C153.291 148.712 153.566 147.777 153.278 146.936C152.889 145.803 151.603 145.225 150.409 145.107C149.215 144.99 148.002 145.2 146.815 145.027C145.751 144.872 144.722 144.412 143.649 144.479C142.362 144.559 141.242 145.387 140.35 146.316C139.458 147.246 138.701 148.315 137.688 149.112C137.377 149.325 137.091 149.571 136.834 149.846C136.318 150.474 136.265 151.368 136.409 152.168C136.553 152.967 136.865 153.73 136.997 154.532C137.121 155.285 137.083 156.054 137.136 156.816C137.149 157.584 137.381 158.332 137.807 158.972C137.991 159.222 138.229 159.426 138.504 159.569C138.779 159.712 139.083 159.791 139.393 159.8C139.608 159.805 139.789 159.612 140.006 159.662C140.277 159.725 140.395 159.982 140.635 160.092Z" fill="#2F2E41"/>
<path d="M130.879 186.468C131.073 183.813 131.219 181.829 131.219 181.829L132.473 178.529L136.497 186.468L130.879 186.468Z" fill="#575A89"/>
<path opacity="0.1" d="M130.879 186.468C131.073 183.813 131.219 181.829 131.219 181.829L132.473 178.529L136.497 186.468L130.879 186.468Z" fill="black"/>
<path d="M140.206 160.362C140.206 160.362 143.959 169.9 141.798 171.717C139.637 173.534 153.853 168.651 153.853 168.651L153.512 167.402C153.512 167.402 148.849 165.585 151.124 160.362C153.398 155.139 140.206 160.362 140.206 160.362Z" fill="#A0616A"/>
<path opacity="0.1" d="M140.206 160.362C140.206 160.362 143.959 169.9 141.798 171.717C139.637 173.534 153.853 168.651 153.853 168.651L153.512 167.402C153.512 167.402 148.849 165.585 151.124 160.362C153.398 155.139 140.206 160.362 140.206 160.362Z" fill="black"/>
<path d="M145.551 164.223C149.948 164.223 153.512 160.664 153.512 156.274C153.512 151.884 149.948 148.326 145.551 148.326C141.154 148.326 137.59 151.884 137.59 156.274C137.59 160.664 141.154 164.223 145.551 164.223Z" fill="#A0616A"/>
<path d="M164.884 173.42C164.884 173.42 164.852 174.052 164.796 175.155C164.682 177.402 164.477 181.612 164.273 186.468H133.413C132.607 185.39 131.947 184.21 131.45 182.959C131.315 182.596 131.238 182.215 131.219 181.829C131.049 178.818 133.75 174.617 135.658 174.216C137.818 173.76 141.912 169.447 141.912 169.447C141.925 169.611 141.979 169.769 142.071 169.907C142.162 170.044 142.286 170.156 142.432 170.232V170.235C142.763 170.405 143.132 170.486 143.503 170.468C144.837 170.468 150.703 167.765 152.586 166.882C152.955 166.71 153.171 166.606 153.171 166.606C155.343 167.542 157.587 168.302 159.881 168.879C161.026 169.164 162.082 169.728 162.955 170.521C163.828 171.313 164.491 172.31 164.884 173.42V173.42Z" fill="#575A89"/>
<path d="M139.271 159.297C139.415 159.341 139.569 159.333 139.709 159.276C139.848 159.219 139.963 159.115 140.034 158.982C140.648 158.017 139.518 156.772 139.762 155.655C139.958 154.76 140.977 154.229 141.185 153.337C141.387 152.47 140.764 151.493 141.185 150.709C141.515 150.095 142.34 149.933 143.03 150.041C143.72 150.148 144.375 150.451 145.072 150.493C146.001 150.55 146.886 150.142 147.795 149.939C148.703 149.737 149.811 149.816 150.345 150.577C151.031 151.554 150.335 152.914 150.574 154.083C150.764 155.011 152.925 155.663 153.121 155.035C153.572 153.572 153.479 151.996 152.861 150.595C152.542 150.023 152.287 149.417 152.101 148.789C151.926 147.918 152.202 146.982 151.913 146.141C151.525 145.008 150.239 144.43 149.045 144.313C147.851 144.195 146.637 144.405 145.45 144.232C144.387 144.077 143.357 143.617 142.285 143.684C140.997 143.764 139.877 144.592 138.985 145.522C138.093 146.451 137.336 147.521 136.323 148.317C136.013 148.53 135.726 148.776 135.469 149.051C134.953 149.679 134.901 150.573 135.044 151.373C135.188 152.172 135.5 152.935 135.632 153.737C135.756 154.49 135.718 155.26 135.771 156.021C135.784 156.789 136.017 157.538 136.442 158.178C136.626 158.427 136.865 158.631 137.14 158.774C137.414 158.918 137.718 158.997 138.028 159.005C138.243 159.01 138.425 158.817 138.641 158.867C138.912 158.93 139.03 159.187 139.271 159.297Z" fill="#2F2E41"/>
<path opacity="0.1" d="M168.829 186.468H159.823C159.137 181.45 158.572 176.203 158.572 176.203L160.391 175.407L164.089 173.421C164.089 173.421 164.36 174.062 164.796 175.155C165.726 177.492 167.413 181.89 168.829 186.468Z" fill="black"/>
<path d="M169.623 186.468H159.459C157.952 180.978 156.467 175.009 156.467 175.009L160.335 172.171L164.884 173.421C164.884 173.421 167.546 179.747 169.623 186.468Z" fill="#575A89"/>
<path d="M240.85 137.927H198.078V140.845H240.85V137.927Z" fill="#009688"/>
<path d="M142.023 193.63H126.88V196.548H142.023V193.63Z" fill="#009688"/>
<path d="M170.184 198.935H126.88V201.853H170.184V198.935Z" fill="#009688"/>
<path d="M249.617 148.537H187.983V151.455H249.617V148.537Z" fill="#F2F2F2"/>
<path d="M249.617 156.76H187.983V159.678H249.617V156.76Z" fill="#F2F2F2"/>
<path d="M249.617 164.983H187.983V167.901H249.617V164.983Z" fill="#F2F2F2"/>
<path d="M249.617 173.206H187.983V176.123H249.617V173.206Z" fill="#F2F2F2"/>
<path d="M249.617 181.429H187.983V184.346H249.617V181.429Z" fill="#F2F2F2"/>
<path d="M249.617 189.651H187.983V192.569H249.617V189.651Z" fill="#F2F2F2"/>
<path d="M249.617 197.874H187.983V200.792H249.617V197.874Z" fill="#F2F2F2"/>
<path d="M261.497 198.268L244.649 215.091L237.567 208.02C237.343 207.796 237.076 207.618 236.782 207.496C236.488 207.375 236.174 207.312 235.856 207.312C235.538 207.312 235.223 207.375 234.929 207.496C234.636 207.618 234.369 207.796 234.144 208.02L233.89 207.64C232.944 208.584 233.199 210.495 234.144 211.438L243.332 220.612C243.678 220.958 244.148 221.152 244.638 221.152C245.127 221.153 245.597 220.959 245.943 220.613L264.919 201.687C265.865 200.743 266.208 199.013 265.262 198.069C264.317 197.125 262.442 197.325 261.497 198.268Z" fill="#57B894"/>
<path opacity="0.1" d="M261.497 198.268L244.649 215.091L237.567 208.02C237.343 207.796 237.076 207.618 236.782 207.496C236.488 207.375 236.174 207.312 235.856 207.312C235.538 207.312 235.223 207.375 234.929 207.496C234.636 207.618 234.369 207.796 234.144 208.02L233.89 207.64C232.944 208.584 233.199 210.495 234.144 211.438L243.332 220.612C243.678 220.958 244.148 221.152 244.638 221.152C245.127 221.153 245.597 220.959 245.943 220.613L264.919 201.687C265.865 200.743 266.208 199.013 265.262 198.069C264.317 197.125 262.442 197.325 261.497 198.268Z" fill="black"/>
<path d="M261.497 197.523L244.649 214.345L237.567 207.274C237.343 207.05 237.076 206.872 236.782 206.751C236.488 206.629 236.174 206.567 235.856 206.567C235.538 206.567 235.223 206.629 234.929 206.751C234.636 206.872 234.369 207.05 234.144 207.274V207.274C233.919 207.499 233.741 207.765 233.619 208.059C233.498 208.352 233.435 208.666 233.435 208.984C233.435 209.301 233.498 209.615 233.619 209.909C233.741 210.202 233.919 210.468 234.144 210.693L243.332 219.866C243.678 220.212 244.148 220.407 244.638 220.407C245.127 220.407 245.597 220.213 245.944 219.867L264.919 200.941C265.144 200.717 265.322 200.45 265.444 200.157C265.566 199.864 265.629 199.549 265.629 199.232C265.629 198.915 265.566 198.6 265.444 198.307C265.323 198.014 265.145 197.747 264.92 197.523V197.523C264.466 197.07 263.85 196.815 263.208 196.815C262.567 196.815 261.951 197.07 261.497 197.523V197.523Z" fill="#57B894"/>
<path opacity="0.1" d="M385.451 294.958C385.451 313.926 358.971 308.059 326.549 308.059C294.128 308.059 268.041 313.926 268.041 294.958C268.041 275.99 294.517 271.865 326.939 271.865C359.361 271.865 385.451 275.99 385.451 294.958Z" fill="black"/>
<path d="M385.451 291.415C385.451 310.383 358.971 304.516 326.549 304.516C294.128 304.516 268.041 310.383 268.041 291.415C268.041 272.447 294.517 268.322 326.939 268.322C359.361 268.322 385.451 272.447 385.451 291.415Z" fill="#3F3D56"/>
<path d="M274.758 231.993L273.558 233.384C273.558 233.384 258.969 234.751 259.561 237.116C260.154 239.481 277.127 233.963 277.127 233.963L274.758 231.993Z" fill="#FFC1C7"/>
<path d="M301.205 230.81C301.205 230.81 285.613 236.328 277.127 233.963L281.074 241.845C281.074 241.845 301.205 241.254 304.757 237.707C308.31 234.16 301.205 230.81 301.205 230.81Z" fill="#009688"/>
<path opacity="0.1" d="M301.205 230.81C301.205 230.81 285.613 236.328 277.127 233.963L281.074 241.845C281.074 241.845 301.205 241.254 304.757 237.707C308.31 234.16 301.205 230.81 301.205 230.81Z" fill="black"/>
<path d="M290.646 188.542C296.423 188.542 301.106 183.866 301.106 178.098C301.106 172.33 296.423 167.654 290.646 167.654C284.869 167.654 280.186 172.33 280.186 178.098C280.186 183.866 284.869 188.542 290.646 188.542Z" fill="#FFC1C7"/>
<path d="M299.565 187.903C299.925 188.589 300.381 189.221 300.92 189.778C302.353 191.335 304.063 192.612 305.962 193.545C300.025 194.75 294.029 195.64 287.997 196.213C288.634 193.974 287.796 191.579 286.67 189.541C285.543 187.504 284.107 185.604 283.402 183.386L290.472 183.576C291.755 183.61 293.042 183.648 294.325 183.586C295.283 183.539 296.88 182.965 297.775 183.177C299.667 183.623 298.739 186.228 299.565 187.903Z" fill="#FFC1C7"/>
<path d="M323.309 236.919L329.23 244.013C329.23 244.013 339.098 267.069 317.586 269.433C296.073 271.798 280.087 267.66 280.087 267.66C280.087 267.66 271.403 263.522 271.206 266.675C271.009 269.827 270.219 278.695 265.482 287.365L261.338 296.824C261.338 296.824 259.167 298.992 259.759 301.948C260.351 304.903 246.536 305.889 246.733 301.948C246.733 301.948 248.707 298.598 248.707 296.627C248.707 294.656 251.865 289.927 251.865 289.927L257.588 261.551C257.588 261.551 257.193 246.969 270.614 249.728C284.034 252.486 303.178 249.137 303.178 249.137L307.52 233.963L323.309 236.919Z" fill="#2F2E41"/>
<path opacity="0.1" d="M323.309 236.919L329.23 244.013C329.23 244.013 339.098 267.069 317.586 269.433C296.073 271.798 280.087 267.66 280.087 267.66C280.087 267.66 271.403 263.522 271.206 266.675C271.009 269.827 270.219 278.695 265.482 287.365L261.338 296.824C261.338 296.824 259.167 298.992 259.759 301.948C260.351 304.903 246.536 305.889 246.733 301.948C246.733 301.948 248.707 298.598 248.707 296.627C248.707 294.656 251.865 289.927 251.865 289.927L257.588 261.551C257.588 261.551 257.193 246.969 270.614 249.728C284.034 252.486 303.178 249.137 303.178 249.137L307.52 233.963L323.309 236.919Z" fill="black"/>
<path d="M301.106 236.4C301.106 236.4 319.164 229.628 329.23 244.013C329.23 244.013 331.795 266.28 321.533 267.266C311.27 268.251 297.849 268.054 294.692 264.704C291.534 261.354 271.6 251.895 271.6 251.895C271.6 251.895 261.678 246.842 259.732 253.408C257.785 259.975 257.588 261.551 257.588 261.551C257.588 261.551 247.325 269.039 243.181 270.419C243.181 270.419 240.418 274.36 238.839 274.36C237.26 274.36 227.589 276.527 228.576 269.236L244.562 254.654L260.548 239.087C260.548 239.087 265.088 232.387 276.732 235.934C284.46 238.23 292.298 240.137 300.218 241.648L301.106 236.4Z" fill="#2F2E41"/>
<path d="M259.167 301.553C259.167 301.553 262.917 311.012 259.759 312.195C256.601 313.377 249.891 312.589 249.891 312.589C249.891 312.589 241.996 311.603 240.023 311.8C238.049 311.997 229.957 310.421 231.142 307.268C232.326 304.115 238.444 304.903 238.444 304.903L243.97 302.342C243.97 302.342 244.562 300.371 245.944 301.159C247.325 301.948 251.272 304.903 259.167 301.553Z" fill="#CBCEDA"/>
<path d="M238.641 273.571C238.641 273.571 242.786 282.833 236.076 282.045C229.365 281.257 224.234 279.877 222.26 279.68C220.362 279.491 214.994 277.66 215.817 274.013C215.862 273.777 215.88 273.537 215.871 273.297C215.871 272.808 216.537 271.847 221.866 271.995C221.866 271.995 225.813 271.995 227.392 269.236C227.392 269.236 233.313 276.724 238.641 273.571Z" fill="#CBCEDA"/>
<path d="M283.442 194.749C283.442 194.749 297.652 185.882 309.494 194.749C321.335 203.617 329.23 244.013 329.23 244.013L301.797 237.904C301.797 237.904 300.612 233.175 299.034 232.387C297.455 231.599 297.257 228.249 297.257 228.249C297.257 228.249 288.771 225.687 289.363 215.834C289.955 205.981 283.442 194.749 283.442 194.749Z" fill="#009688"/>
<path d="M290.745 195.143H283.442C283.442 195.143 279.1 200.07 278.508 212.484L276.14 222.337C276.14 222.337 271.206 234.16 274.166 236.131C277.127 238.101 282.85 237.904 284.034 233.963C285.218 230.022 293.31 207.164 293.31 207.164L290.745 195.143Z" fill="#009688"/>
<path d="M288.652 164.506C290.462 163.764 292.443 163.539 294.374 163.855C296.305 164.172 298.11 165.017 299.589 166.296C303.379 169.674 304.144 175.183 305.102 180.164C306.06 185.146 307.988 190.693 312.69 192.613C310.571 192.896 308.419 192.834 306.32 192.428L313.426 198.786L301.456 194.891C297.699 193.668 293.754 192.43 289.863 193.121C283.419 194.264 278.932 200.314 272.742 202.439L273.43 199.087L269.277 199.056C270.272 198.321 271.086 197.369 271.657 196.272C271.461 196.035 271.219 195.839 270.947 195.697C270.674 195.554 270.375 195.468 270.068 195.442C268.337 184.661 274.749 174.004 283.105 166.96C284.749 165.574 286.567 164.244 288.69 163.897C290.813 163.55 293.291 164.498 294.029 166.516" fill="#2F2E41"/>
<path d="M107.558 263.314C107.558 285.996 121.81 304.349 139.422 304.349Z" fill="#3F3D56"/>
<path d="M139.422 304.349C139.422 281.413 155.326 262.852 174.98 262.852Z" fill="#009688"/>
<path d="M119.103 265.37C119.103 286.915 128.191 304.349 139.422 304.349Z" fill="#009688"/>
<path d="M139.422 304.349C139.422 275.041 157.804 251.325 180.521 251.325Z" fill="#3F3D56"/>
<path d="M132.719 304.639C132.719 304.639 137.237 304.5 138.599 303.532C139.961 302.563 145.55 301.407 145.888 302.96C146.226 304.513 152.679 310.683 147.577 310.724C142.476 310.765 135.723 309.931 134.364 309.104C133.005 308.278 132.719 304.639 132.719 304.639Z" fill="#A8A8A8"/>
<path opacity="0.2" d="M147.668 310.184C142.567 310.225 135.814 309.39 134.455 308.564C133.42 307.934 133.007 305.675 132.869 304.633C132.774 304.637 132.719 304.639 132.719 304.639C132.719 304.639 133.005 308.278 134.364 309.104C135.723 309.931 142.476 310.765 147.577 310.724C149.05 310.712 149.559 310.189 149.531 309.415C149.326 309.883 148.764 310.175 147.668 310.184Z" fill="black"/>
</g>
<defs>
<clipPath id="clip0">
<rect x="20.7983" y="90.2979" width="379.202" height="229.702" fill="white"/>
</clipPath>
</defs>
</svg>
