<svg width="419" height="331" viewBox="0 0 419 331" fill="none" xmlns="http://www.w3.org/2000/svg">
<g clip-path="url(#clip0)">
<path d="M400.51 138.306C382.256 66.5941 319.18 14.828 245.142 12.7517C206.001 11.654 164.813 24.6229 134.826 70.0056C81.2193 151.132 138.12 207.193 177.789 233.832C196.954 246.728 214.223 262.234 229.096 279.901C255.891 311.668 307.439 351.142 368.831 289.292C413.328 244.463 412.67 186.074 400.51 138.306Z" fill="#E0F2F1"/>
<path d="M170.723 330.849C183.544 327.513 195.87 324.677 207.703 322.339L203.156 307.154C204.738 306.276 211.585 315.064 211.585 315.064L205.814 271.143C213.719 272.905 217.382 317.703 217.382 317.703L226.352 302.776L221.931 319.679C258.138 313.362 289.38 311.403 315.641 311.873L311.749 298.875C313.331 297.998 320.179 306.786 320.179 306.786L314.407 262.865C322.313 264.626 325.975 309.424 325.975 309.424L334.946 294.498L330.263 312.401C352.271 313.608 370.203 316.497 384.037 319.65C380.158 299.449 366.582 280.024 366.582 280.024C377.027 285.447 382.457 294.274 385.265 302.455C385.689 277.625 384.588 231.549 374.022 180.336C374.022 180.336 395.059 259.4 391.865 312.099L391.458 321.46C409.798 326.24 419 331 419 331L170.723 330.849Z" fill="#3F3D56"/>
<path d="M250.2 318.654C250.111 318.508 248.007 314.999 247.278 307.712C246.609 301.027 247.039 289.758 252.889 274.04C263.971 244.262 250.335 220.235 250.196 219.996L250.868 219.606C250.904 219.667 254.422 225.792 256.501 235.547C259.247 248.479 258.247 261.926 253.618 274.31C242.555 304.038 250.78 318.11 250.864 318.249L250.2 318.654Z" fill="#3F3D56"/>
<path d="M245.867 218.247C248.658 218.247 250.921 215.987 250.921 213.198C250.921 210.41 248.658 208.149 245.867 208.149C243.076 208.149 240.813 210.41 240.813 213.198C240.813 215.987 243.076 218.247 245.867 218.247Z" fill="#009688"/>
<path d="M261.806 236.89C264.598 236.89 266.86 234.629 266.86 231.841C266.86 229.052 264.598 226.792 261.806 226.792C259.015 226.792 256.752 229.052 256.752 231.841C256.752 234.629 259.015 236.89 261.806 236.89Z" fill="#3F3D56"/>
<path d="M250.921 249.318C253.712 249.318 255.975 247.058 255.975 244.269C255.975 241.481 253.712 239.22 250.921 239.22C248.13 239.22 245.867 241.481 245.867 244.269C245.867 247.058 248.13 249.318 250.921 249.318Z" fill="#009688"/>
<path d="M264.139 259.805C266.93 259.805 269.193 257.544 269.193 254.756C269.193 251.967 266.93 249.707 264.139 249.707C261.348 249.707 259.085 251.967 259.085 254.756C259.085 257.544 261.348 259.805 264.139 259.805Z" fill="#009688"/>
<path d="M247.033 276.117C249.824 276.117 252.087 273.856 252.087 271.068C252.087 268.279 249.824 266.019 247.033 266.019C244.242 266.019 241.979 268.279 241.979 271.068C241.979 273.856 244.242 276.117 247.033 276.117Z" fill="#3F3D56"/>
<path d="M253.253 318.84C253.253 318.84 248.2 306.411 263.361 297.09L253.253 318.84Z" fill="#3F3D56"/>
<path d="M247.038 318.614C247.038 318.614 244.738 305.398 226.936 305.511L247.038 318.614Z" fill="#3F3D56"/>
<path d="M324.432 109.251C314.775 109.251 306.947 117.93 306.947 128.637V142.241H311.134L313.559 137.201L312.953 142.241H339.871L342.075 137.659L341.524 142.241H344.554V131.56C344.554 119.239 335.545 109.251 324.432 109.251Z" fill="#2F2E41"/>
<path d="M308.008 172.144L305.104 183.266L332.211 182.299L331.727 173.111C331.727 173.111 311.397 167.792 308.008 172.144Z" fill="#A0616A"/>
<path d="M281.87 216.633L290.582 235.977L298.811 225.821L292.035 212.281L281.87 216.633Z" fill="#A0616A"/>
<path d="M303.652 287.72L304.62 309.964H315.269L313.817 287.72H303.652Z" fill="#A0616A"/>
<path d="M291.067 196.323L295.907 212.281L303.168 289.654C303.168 289.654 309.945 291.588 314.785 289.17L315.753 278.532L317.689 217.6C317.689 217.6 326.886 212.765 325.918 205.995C324.95 199.224 322.53 190.036 322.53 190.036L291.067 196.323Z" fill="#2F2E41"/>
<path d="M306.072 304.645H303.168C303.168 304.645 294.939 313.349 292.035 314.317C289.13 315.284 274.125 323.505 286.226 324.955C298.327 326.406 306.072 320.119 306.072 320.119C306.072 320.119 309.944 322.537 315.269 320.603C320.594 318.669 317.689 312.866 317.689 312.866C317.689 312.866 314.986 304.021 314.886 304.091C314.785 304.161 311.881 308.514 306.072 304.645Z" fill="#2F2E41"/>
<path d="M321.078 139.26C327.226 139.26 332.211 134.281 332.211 128.138C332.211 121.995 327.226 117.016 321.078 117.016C314.929 117.016 309.945 121.995 309.945 128.138C309.945 134.281 314.929 139.26 321.078 139.26Z" fill="#A0616A"/>
<path d="M337.535 142.645L332.414 146.911L331.727 147.481L331.243 153.284H312.365C312.365 153.284 314.94 151.055 317.331 148.748C317.38 148.695 317.433 148.637 317.491 148.584C317.815 148.27 318.106 147.979 318.367 147.718C318.507 147.573 318.643 147.438 318.764 147.312C318.962 147.104 319.156 146.906 319.35 146.708C319.352 146.705 319.354 146.702 319.354 146.698C319.85 146.18 320.315 145.634 320.748 145.063L320.753 145.059C320.87 144.905 320.978 144.745 321.078 144.58C322.53 142.162 319.141 137.326 319.141 137.326L329.79 132.007C330.163 137.249 334.602 140.75 336.587 142.065C337.167 142.447 337.535 142.645 337.535 142.645Z" fill="#A0616A"/>
<path d="M363.674 223.887C356.413 225.821 355.929 211.314 355.929 211.314L346.019 191.513C343.925 187.33 342.485 182.85 341.75 178.23L339.471 163.923L338.779 164.75V164.755L337.535 165.374L329.974 153.284L327.854 149.899V146.031L335.115 142.645H338.019C338.019 142.645 338.082 142.636 338.194 142.626C339.53 142.486 348.223 141.906 348.668 150.383C348.844 153.71 348.829 156.466 348.738 158.629C348.462 164.612 349.031 170.605 350.426 176.43C350.939 178.53 351.498 180.354 352.057 181.332C353.993 184.717 360.77 211.314 360.77 211.314C360.77 211.314 370.935 221.953 363.674 223.887Z" fill="#A0616A"/>
<path d="M319.142 147.965L317.307 151.306L316.223 153.284L310.913 162.956C310.913 162.956 309.407 164.184 306.968 165.77C302.911 168.406 296.26 172.023 289.614 172.627C278.965 173.595 289.13 139.26 289.13 139.26C289.13 139.26 292.519 125.72 297.359 127.171C302.2 128.622 298.327 133.457 294.939 142.645C291.551 151.834 294.455 161.989 294.455 161.989C294.455 161.989 304.62 155.702 309.945 150.866C312.718 148.347 315.1 147.665 316.741 147.593H316.745C317.289 147.563 317.834 147.605 318.367 147.718C318.634 147.771 318.893 147.854 319.142 147.965V147.965Z" fill="#A0616A"/>
<path d="M320.749 145.063C320.729 145.117 320.502 145.547 318.764 147.312C319.473 146.606 320.136 145.855 320.749 145.063V145.063Z" fill="#D0CDE1"/>
<path d="M339.229 164.165L338.779 164.755L331.727 176.98C331.727 176.98 322.53 173.595 315.753 172.627C313.891 172.306 311.976 172.548 310.252 173.32C308.528 174.093 307.075 175.362 306.077 176.965L308.008 169.242L306.968 165.77C306.847 165.364 306.706 164.914 306.556 164.407C305.104 159.571 310.429 154.251 310.429 154.251L316.741 147.593H316.745C317.289 147.563 317.834 147.605 318.367 147.718C318.106 147.979 317.815 148.27 317.491 148.584C317.433 148.637 317.379 148.695 317.331 148.748C315.477 150.639 316.44 151.166 317.307 151.306C317.593 151.35 317.884 151.365 318.173 151.35C320.192 151.64 324.611 149.87 327.854 148.39C330.062 147.385 331.727 146.514 331.727 146.514L335.952 142.646L336.587 142.065C337.167 142.447 337.535 142.646 337.535 142.646H338.019C338.019 142.646 338.082 142.636 338.194 142.626L335.99 144.26C334.892 145.074 334.016 146.148 333.44 147.387C332.865 148.625 332.609 149.987 332.695 151.35V151.35L339.229 164.165Z" fill="#D0CDE1"/>
<path d="M312.849 177.947L305.772 180.708C305.772 180.708 267.348 165.857 261.54 177.947C255.731 190.036 281.87 219.051 281.87 219.051L293.487 213.732L288.646 199.224C288.646 199.224 316.721 222.92 328.338 209.863C339.956 196.807 332.211 178.345 332.211 178.345C332.211 178.345 324.95 172.627 312.849 177.947Z" fill="#2F2E41"/>
<path d="M292.519 230.657L288.162 234.042C288.162 234.042 292.035 249.517 290.583 251.935C289.13 254.353 286.226 261.123 291.551 260.639C296.875 260.155 302.684 251.935 303.168 249.033C303.652 246.132 307.04 237.427 307.04 237.427C307.04 237.427 312.849 223.887 308.493 223.403C304.136 222.92 297.197 222.596 297.197 222.596L292.519 230.657Z" fill="#2F2E41"/>
<path d="M329.403 114.591C328.562 113.462 327.471 112.542 326.217 111.903C324.962 111.263 323.576 110.92 322.168 110.902H321.824C315.205 110.902 309.839 116.886 309.839 124.267V124.267H312.057L312.415 121.543L312.941 124.267H326.095L327.197 121.963L326.921 124.267H329.509C330.717 130.258 328.981 136.25 324.304 142.241H328.712L330.916 137.632L330.365 142.241H338.768L340.421 131.641C340.421 123.703 335.805 116.971 329.403 114.591Z" fill="#2F2E41"/>
<path d="M250.036 20.6863V0H242.728V20.6863H135.136V0H127.828V20.6863H83.167V133.447H294.697V20.6863H250.036ZM131.482 47.0511C128.788 47.0512 126.181 46.0954 124.127 44.3542C122.073 42.613 120.704 40.1996 120.266 37.5441C119.827 34.8887 120.346 32.1639 121.731 29.8554C123.116 27.547 125.277 25.8049 127.828 24.9399V41.3726H135.136V24.9398C137.687 25.8049 139.848 27.5469 141.233 29.8554C142.618 32.1639 143.137 34.8887 142.698 37.5441C142.259 40.1996 140.891 42.613 138.837 44.3542C136.782 46.0954 134.176 47.0512 131.482 47.0511L131.482 47.0511ZM246.382 47.0511C243.688 47.0512 241.082 46.0954 239.027 44.3542C236.973 42.613 235.605 40.1996 235.166 37.5441C234.727 34.8887 235.246 32.1639 236.631 29.8554C238.016 27.5469 240.177 25.8049 242.728 24.9399V41.3726H250.036V24.9398C252.587 25.8049 254.748 27.5469 256.133 29.8554C257.518 32.1639 258.037 34.8887 257.598 37.5441C257.16 40.1996 255.791 42.613 253.737 44.3542C251.683 46.0954 249.076 47.0512 246.382 47.0511V47.0511Z" fill="#3F3D56"/>
<path d="M129.858 58.6111H93.3171V86.1929H129.858V58.6111Z" fill="#D0CDE1"/>
<path d="M181.421 58.6111H144.88V86.1929H181.421V58.6111Z" fill="#D0CDE1"/>
<path d="M232.984 58.6111H196.443V86.1929H232.984V58.6111Z" fill="#D0CDE1"/>
<path d="M284.547 58.6111H248.006V86.1929H284.547V58.6111Z" fill="#D0CDE1"/>
<path d="M129.858 94.3051H93.3171V121.887H129.858V94.3051Z" fill="#D0CDE1"/>
<path d="M181.421 94.3051H144.88V121.887H181.421V94.3051Z" fill="#D0CDE1"/>
<path d="M232.984 94.3051H196.443V121.887H232.984V94.3051Z" fill="#D0CDE1"/>
<path d="M284.547 94.3051H248.006V121.887H284.547V94.3051Z" fill="#D0CDE1"/>
<path d="M214.548 78.6088L203.127 62.8518L206.238 60.6017L214.981 72.6632L248.435 38.3261L251.187 41.0025L214.548 78.6088Z" fill="#009688"/>
<path d="M162.173 116.736L150.752 100.979L153.863 98.7293L162.606 110.791L196.06 76.4537L198.812 79.1301L162.173 116.736Z" fill="#009688"/>
<path d="M58.3938 119.652L50.0274 116.353L41.6606 113.055L48.7031 107.466L55.7455 101.876L57.0698 110.764L58.3938 119.652Z" fill="#F2F2F2"/>
<path d="M110.141 279.999L101.774 276.7L93.4077 273.402L100.45 267.813L107.493 262.223L108.817 271.111L110.141 279.999Z" fill="#F2F2F2"/>
<path d="M16.7331 168.281L8.36678 164.983L0 161.685L7.04241 156.096L14.0848 150.506L15.4092 159.394L16.7331 168.281Z" fill="#F2F2F2"/>
<path d="M61.878 199.28L53.9761 203.572L46.0746 207.865L46.3044 198.882L46.5342 189.9L54.2063 194.59L61.878 199.28Z" fill="#F2F2F2"/>
<path d="M152.654 244.844L144.753 249.136L136.851 253.428L137.081 244.446L137.311 235.463L144.983 240.153L152.654 244.844Z" fill="#F2F2F2"/>
</g>
<defs>
<clipPath id="clip0">
<rect width="419" height="331" fill="white"/>
</clipPath>
</defs>
</svg>
