<svg width="392" height="214" viewBox="0 0 392 214" fill="none" xmlns="http://www.w3.org/2000/svg">
<g clip-path="url(#clip0)">
<path opacity="0.1" d="M387.845 198.449C386.323 202.203 384.451 205.805 382.251 209.207C381.22 210.829 380.088 212.385 378.863 213.866C378.852 213.882 378.839 213.895 378.825 213.907H0L0.0511303 213.866C0.392 213.601 2.3929 211.981 5.50504 209.207C7.73774 207.22 10.5397 204.636 13.6859 201.527C39.4182 176.217 88.8477 116.31 47.6808 61.4296C9.41141 10.4116 50.6157 1.15363 77.7967 0.0730722C88.2398 -0.33604 98.658 1.3671 108.427 5.08045C120.985 9.85262 143.936 17.1677 173.837 20.5218C174.818 20.6309 175.807 20.74 176.809 20.8388C192.64 22.4507 208.577 22.7403 224.456 21.7047V21.7047C224.923 21.6774 225.393 21.6433 225.867 21.6092C241.575 20.5062 257.164 18.0947 272.471 14.3998C273.463 14.1578 274.441 13.9294 275.416 13.701C326.42 1.90013 373.44 42.1193 361.683 87.5709C357.337 104.383 358.441 122.302 372.932 136.799C396.656 160.462 393.783 183.768 387.845 198.449Z" fill="#009688"/>
<path d="M387.845 198.448C386.323 202.202 384.451 205.804 382.251 209.205C381.22 210.827 380.088 212.384 378.863 213.865H0.0511475C0.392017 213.599 2.39292 211.98 5.50506 209.205C7.73776 207.218 10.5397 204.634 13.6859 201.526L53.612 193.277C54.1279 193.17 54.6532 193.116 55.18 193.116L97.7444 193.055H97.7887L118.871 193.028H118.919L136.713 193.007H148.36H160.291L209.178 192.939H209.256H213.043H219.697H228.004H230.213L238.609 192.844H241.383L265.803 192.81H273.602H277.352L305.559 192.772H313.958L340.675 192.735L363.227 192.707C363.855 192.708 364.481 192.782 365.092 192.929L387.845 198.448Z" fill="#454B69"/>
<path opacity="0.4" d="M5.50506 209.205H382.251C381.22 210.827 380.088 212.384 378.863 213.865H0.0511475C0.3852 213.582 2.3861 211.963 5.50506 209.205Z" fill="black"/>
<path d="M249.932 103.195L249.176 103.341L214.966 109.913C205.03 111.822 194.95 113.741 184.857 113.008C177.545 112.477 170.714 110.309 163.689 108.407C159.718 107.33 155.508 106.9 154.162 102.455C152.304 96.3195 155.327 87.2353 156.04 81.0179C156.722 74.9163 157.124 68.6614 155.91 62.6314C155.641 61.2763 155.286 59.9397 154.847 58.6296C153.63 55.0198 151.718 51.2668 152.75 47.6024C153.565 44.6948 156.05 42.6189 158.375 40.6964C162.929 36.9468 167.578 32.7439 169.385 27.123C170.271 24.396 170.438 21.4611 171.393 18.7546C173.203 13.6075 177.75 9.75909 182.808 7.72069C187.867 5.68229 193.43 5.24939 198.887 5.24939C203.706 5.24966 208.519 5.56964 213.296 6.20723C218.504 6.88897 223.76 8.01043 228.338 10.5942C232.916 13.178 236.775 17.4116 237.842 22.5724C239.352 29.8704 235.159 37.6422 237.409 44.7289C238.541 48.3114 241.158 51.2054 242.975 54.4846C244.457 57.2276 245.371 60.2407 245.664 63.3444C245.957 66.4481 245.622 69.579 244.68 72.5507C242.505 79.2897 237.18 86.1071 239.907 92.6415C241.642 96.7967 246.074 99.0158 249.162 102.309C249.437 102.604 249.694 102.899 249.932 103.195Z" fill="#454B69"/>
<path opacity="0.1" d="M249.176 102.336V103.341L214.966 109.913C205.03 111.822 194.95 113.741 184.857 113.008C177.545 112.477 170.714 110.309 163.689 108.407C159.718 107.33 155.508 106.9 154.162 102.455C152.304 96.3195 155.327 87.2353 156.04 81.0178C156.722 74.9163 167.217 52.6405 166.003 46.6105L228.723 49.3374C229.146 52.6677 245.723 69.384 244.69 72.5779C242.515 79.3169 237.191 86.1343 239.918 92.6688C241.656 96.824 246.087 99.043 249.176 102.336Z" fill="black"/>
<path d="M185.092 85.4696C185.464 87.5796 185.661 89.9009 184.584 91.7416C183.149 94.2095 180.02 94.9969 177.222 95.5559L167.507 97.4989C166.845 97.6318 166.143 97.7818 165.649 98.2352C165.066 98.7567 164.868 99.5816 164.783 100.359C164.391 103.877 165.635 107.343 166.771 110.694C169.065 117.481 170.99 124.411 173.891 130.959C176.792 137.507 180.773 143.758 186.456 148.135C192.138 152.512 199.658 154.843 206.615 153.132C212.675 151.643 217.645 147.365 221.93 142.828C225.465 139.078 228.771 134.988 230.486 130.124C231.669 126.783 232.054 123.224 232.425 119.7C233 114.296 233.575 108.892 234.15 103.488C234.419 100.952 234.597 98.0988 232.95 96.1525C232.228 95.2969 231.246 94.7276 230.244 94.1993C226.515 92.2188 222.588 90.5826 219.118 88.1966C215.648 85.8105 212.57 82.5245 211.516 78.4477C210.886 76.0002 210.998 73.3346 209.925 71.0542C208.725 68.4977 206.175 66.7661 203.448 66.006C200.721 65.2458 197.844 65.3481 195.035 65.6651C192.227 65.9821 181.401 66.7934 180.238 69.96C179.614 71.6644 182.202 75.3219 182.815 76.999C183.825 79.749 184.587 82.5838 185.092 85.4696Z" fill="#EFB7B9"/>
<path opacity="0.1" d="M185.092 85.4696C185.464 87.5796 185.661 89.9009 184.584 91.7416C183.149 94.2095 180.02 94.9969 177.222 95.5559L167.507 97.4989C166.845 97.6318 166.143 97.7818 165.649 98.2352C165.066 98.7567 164.868 99.5816 164.783 100.359C164.391 103.877 165.635 107.343 166.771 110.694C169.065 117.481 170.99 124.411 173.891 130.959C176.792 137.507 180.773 143.758 186.456 148.135C192.138 152.512 199.658 154.843 206.615 153.132C212.675 151.643 217.645 147.365 221.93 142.828C225.465 139.078 228.771 134.988 230.486 130.124C231.669 126.783 232.054 123.224 232.425 119.7C233 114.296 233.575 108.892 234.15 103.488C234.419 100.952 234.597 98.0988 232.95 96.1525C232.228 95.2969 231.246 94.7276 230.244 94.1993C226.515 92.2188 222.588 90.5826 219.118 88.1966C215.648 85.8105 212.57 82.5245 211.516 78.4477C210.886 76.0002 210.998 73.3346 209.925 71.0542C208.725 68.4977 206.175 66.7661 203.448 66.006C200.721 65.2458 197.844 65.3481 195.035 65.6651C192.227 65.9821 181.401 66.7934 180.238 69.96C179.614 71.6644 182.202 75.3219 182.815 76.999C183.825 79.749 184.587 82.5838 185.092 85.4696Z" fill="black"/>
<path d="M208.472 122.536L214.168 110.476C216.837 104.824 219.564 98.8863 219.281 92.645C219.227 91.4042 219.213 89.8533 220.304 89.2908C220.777 89.0974 221.293 89.0316 221.8 89.0999C227.797 89.4066 233.714 90.6036 239.359 92.6518C240.453 93.0472 241.574 93.504 242.341 94.3766C243.108 95.2492 243.418 96.4218 243.681 97.5467C244.575 101.35 245.227 105.206 245.634 109.092C246.657 118.711 246.149 128.416 245.634 138.066L244.12 167.527C244.129 167.945 244.044 168.36 243.872 168.741C243.497 169.422 242.651 169.651 241.891 169.78C238.963 170.281 235.97 170.179 233.005 170.067C212.144 169.276 191.173 168.062 170.448 170.592C170.542 167.526 170.493 164.458 170.302 161.388C169.48 148.132 166.044 135.199 162.67 122.355C160.703 114.856 158.797 106.675 161.964 99.609C162.43 98.493 163.099 97.4735 163.938 96.6025C165.284 95.2833 167.121 94.5879 168.942 94.0903C172.082 93.2362 175.334 92.8683 178.585 92.9995L200.077 139.791C201.058 141.931 201.866 144.184 202.845 146.298C203.724 142.647 202.667 138.369 203.724 134.412C204.863 130.304 206.656 126.374 208.472 122.536Z" fill="white"/>
<path d="M206.226 154.731C210.071 154.973 213.807 153.003 216.452 150.218C219.097 147.433 220.843 143.901 222.319 140.333C224.44 135.245 226.127 129.987 227.36 124.615C228.383 120.047 229.109 115.32 228.403 110.691C227.428 104.299 223.812 98.4908 223.195 92.0552C223.089 90.9303 223.157 89.6146 224.06 88.9363C224.619 88.517 225.356 88.459 226.051 88.4181C232.48 88.0364 239.543 88.1079 244.523 92.1881C246.04 93.4289 247.27 94.9799 248.753 96.2581C252.284 99.326 257.275 100.887 259.541 104.961C260.332 106.379 260.711 107.984 261.263 109.511C262.565 113.124 264.818 116.301 267.058 119.427C264.886 128.59 262.391 137.759 260.22 146.922C258.948 152.297 257.667 157.693 255.669 162.84C254.36 166.215 252.714 169.658 253.116 173.271C253.276 174.692 253.75 176.052 254.163 177.423C255.608 182.232 256.286 187.24 256.17 192.261L158.907 192.499C163.566 185.818 164.933 177.624 164.459 169.494C164.231 165.598 163.351 161.678 161.391 158.307C158.303 153.023 152.87 149.58 147.515 146.632C143.765 144.587 139.739 156.094 135.687 154.775C136.341 150.146 136.641 132.278 136.368 127.618C136.28 126.091 136.143 124.523 136.614 123.064C136.934 122.065 137.524 121.172 137.923 120.201C139.521 116.311 137.998 111.338 140.581 108.028C142.368 105.727 145.5 105.073 148.046 103.655C150.661 102.196 152.682 99.9054 154.959 97.9488C159.427 94.155 164.887 91.7175 170.694 90.9235C172.388 93.5957 173.418 96.6346 173.697 99.7861C173.871 101.767 173.745 103.774 174.021 105.745C174.399 108.414 175.504 110.919 176.598 113.387C181.155 123.678 185.73 133.999 191.504 143.663C193.137 146.39 194.913 149.117 197.278 151.24C199.644 153.364 203.049 154.881 206.226 154.731Z" fill="#009688"/>
<path opacity="0.1" d="M206.226 154.731C210.071 154.973 213.807 153.003 216.452 150.218C219.097 147.433 220.843 143.901 222.319 140.333C224.44 135.245 226.127 129.987 227.36 124.615C228.383 120.047 229.109 115.32 228.403 110.691C227.428 104.299 223.812 98.4908 223.195 92.0552C223.089 90.9303 223.157 89.6146 224.06 88.9363C224.619 88.517 225.356 88.459 226.051 88.4181C232.48 88.0364 239.543 88.1079 244.523 92.1881C246.04 93.4289 247.27 94.9799 248.753 96.2581C252.284 99.326 257.275 100.887 259.541 104.961C260.332 106.379 260.711 107.984 261.263 109.511C262.565 113.124 264.818 116.301 267.058 119.427C264.886 128.59 262.391 137.759 260.22 146.922C258.948 152.297 257.667 157.693 255.669 162.84C254.36 166.215 252.714 169.658 253.116 173.271C253.276 174.692 253.75 176.052 254.163 177.423C255.608 182.232 256.286 187.24 256.17 192.261L158.907 192.499C163.566 185.818 164.933 177.624 164.459 169.494C164.231 165.598 163.351 161.678 161.391 158.307C158.303 153.023 152.87 149.58 147.515 146.632C143.765 144.587 139.739 156.094 135.687 154.775C136.341 150.146 136.641 132.278 136.368 127.618C136.28 126.091 136.143 124.523 136.614 123.064C136.934 122.065 137.524 121.172 137.923 120.201C139.521 116.311 137.998 111.338 140.581 108.028C142.368 105.727 145.5 105.073 148.046 103.655C150.661 102.196 152.682 99.9054 154.959 97.9488C159.427 94.155 164.887 91.7175 170.694 90.9235C172.388 93.5957 173.418 96.6346 173.697 99.7861C173.871 101.767 173.745 103.774 174.021 105.745C174.399 108.414 175.504 110.919 176.598 113.387C181.155 123.678 185.73 133.999 191.504 143.663C193.137 146.39 194.913 149.117 197.278 151.24C199.644 153.364 203.049 154.881 206.226 154.731Z" fill="black"/>
<path d="M201.082 84.6959C217.22 84.6959 230.302 71.6139 230.302 55.4765C230.302 39.3391 217.22 26.2572 201.082 26.2572C184.945 26.2572 171.863 39.3391 171.863 55.4765C171.863 71.6139 184.945 84.6959 201.082 84.6959Z" fill="#EFB7B9"/>
<path d="M185.75 94.414C186.551 86.8535 183.408 79.4567 179.85 72.7381C178.145 69.5271 176.318 66.3264 175.463 62.7984C174.607 59.2704 174.852 55.2754 177.041 52.3746C178.902 49.9067 181.854 48.5739 184.584 47.1252C192.291 43.0348 199.337 37.0218 202.725 28.9807C200.81 30.0238 201.307 33.1359 202.998 34.5096C204.689 35.8833 206.993 36.1492 209.072 36.8037C216.653 39.1897 221.201 46.7502 224.848 53.8131C225.444 54.9652 226.051 56.1821 226.044 57.4808C226.037 58.7795 225.444 59.9317 224.824 61.0361C223.024 64.2403 220.822 67.3183 220.004 70.9008C219.067 74.9913 220.055 79.293 221.34 83.3051C222.704 87.5728 224.514 91.8745 227.786 94.9356C231.058 97.9966 236.134 99.5168 240.16 97.5398C236.141 90.6304 231.979 82.9097 233.547 75.0765C234.304 71.3269 236.339 67.9182 237.204 64.1891C238.854 57.0752 236.107 49.7567 233.41 42.9666L225.352 22.7019C224.122 19.6034 222.721 16.2969 219.898 14.5415C217.99 13.3586 215.678 13.0519 213.442 12.8371C206.243 12.1963 198.785 12.4076 192.083 15.0869C179.874 19.9647 172.218 31.9906 166.143 43.6551C164.323 47.149 162.527 50.8611 162.602 54.8016C162.643 56.9627 163.246 59.0658 163.737 61.1724C165.734 69.7487 165.843 78.6352 165.946 87.4398C166.024 94.1959 165.673 100.563 162.718 106.716C166.767 107.52 172.64 109.692 176.649 108.103C181.874 106.038 185.092 99.6736 185.75 94.414Z" fill="#454B69"/>
<g opacity="0.1">
<path opacity="0.1" d="M165.929 87.2967C165.942 86.3355 165.942 85.3651 165.929 84.3857C165.826 75.581 165.717 66.6946 163.72 58.1183C163.273 56.4493 162.925 54.7557 162.677 53.0461C162.607 53.6331 162.576 54.2242 162.585 54.8153C162.626 56.9764 163.229 59.0795 163.72 61.1861C165.707 69.7113 165.83 78.5432 165.929 87.2967Z" fill="black"/>
<path opacity="0.1" d="M237.204 64.189C237.652 62.1974 237.801 60.1503 237.647 58.1147C237.58 59.1272 237.432 60.1326 237.204 61.1212C236.338 64.8708 234.304 68.2488 233.547 72.0086C233.221 73.6669 233.129 75.3628 233.274 77.0467C233.328 76.3854 233.419 75.7276 233.547 75.0764C234.304 71.3166 236.338 67.925 237.204 64.189Z" fill="black"/>
<path opacity="0.1" d="M225.778 55.9162C225.945 55.4321 226.035 54.9249 226.044 54.413C226.044 53.1143 225.444 51.8974 224.848 50.7452C221.201 43.6824 216.667 36.1287 209.072 33.7358C206.993 33.0814 204.692 32.8155 202.998 31.4418C202.562 31.0663 202.205 30.6076 201.949 30.0925C201.693 29.5774 201.542 29.0163 201.505 28.4421C197.81 35.2254 191.463 40.4135 184.584 44.0574C181.857 45.5061 178.902 46.8389 177.041 49.3068C175.292 51.6247 174.784 54.6414 175.088 57.5592C175.26 55.6866 175.935 53.8952 177.041 52.3746C178.902 49.9067 181.854 48.5739 184.584 47.1252C191.463 43.4813 197.81 38.2933 201.505 31.51C201.542 32.0842 201.693 32.6453 201.949 33.1604C202.205 33.6754 202.562 34.1342 202.998 34.5096C204.702 35.8731 206.993 36.1492 209.072 36.8037C216.653 39.1898 221.201 46.7502 224.848 53.8131C225.218 54.4862 225.529 55.1898 225.778 55.9162V55.9162Z" fill="black"/>
<path opacity="0.1" d="M227.786 91.8676C224.514 88.7998 222.711 84.5049 221.34 80.2372C220.518 77.8399 219.969 75.3574 219.704 72.8369C219.387 76.3376 220.256 79.9202 221.34 83.305C222.704 87.5727 224.514 91.8745 227.786 94.9355C231.059 97.9965 236.134 99.5168 240.16 97.5397C239.676 96.7114 239.195 95.8695 238.718 95.0207C234.979 96.074 230.684 94.5742 227.786 91.8676Z" fill="black"/>
<path opacity="0.1" d="M185.75 91.3462C185.092 96.6058 181.874 102.97 176.635 105.049C172.998 106.491 167.82 104.834 163.87 103.917C163.53 104.874 163.141 105.813 162.704 106.73C166.753 107.534 172.627 109.705 176.635 108.117C181.874 106.038 185.092 99.6736 185.75 94.414C185.886 93.0981 185.911 91.7732 185.825 90.4531C185.805 90.7497 185.774 91.0496 185.75 91.3462Z" fill="black"/>
</g>
<path d="M227.053 175.861C221.787 175.026 216.442 173.414 211.22 174.498C208.193 175.125 205.425 176.632 202.909 178.452C204.293 179.56 205.909 180.548 206.789 182.089C207.334 183.155 207.744 184.285 208.009 185.453C208.561 187.499 209.117 189.585 209.202 191.712C209.287 193.839 208.861 196.054 207.593 197.769C214.233 198.424 220.669 196.787 227.145 195.189C227.886 195.059 228.591 194.774 229.214 194.354C230.237 193.549 230.537 192.117 230.544 190.812C230.544 188.48 229.889 186.207 229.225 183.971C228.434 181.288 227.847 178.527 227.053 175.861Z" fill="white"/>
<path d="M262.613 118.367C265.227 118.708 267.255 120.818 268.748 122.986C272.938 129.019 274.744 136.334 276.755 143.4C279.255 152.188 282.195 160.837 285.574 169.347C286.301 171.313 287.186 173.217 288.219 175.04C289.061 176.448 290.083 177.801 290.455 179.4C291.355 183.265 288.168 186.899 284.844 189.053C283.073 190.247 281.138 191.179 279.101 191.821C277.117 192.414 275.048 192.639 272.992 192.864L254.071 194.909C245.361 195.857 236.574 196.804 227.861 195.891C227.312 193.982 228.389 192.632 228.311 190.645C228.256 189.224 227.629 187.901 227.07 186.592C226.039 184.261 225.358 181.79 225.049 179.26C224.95 178.329 224.916 177.375 224.561 176.509C224.207 175.643 223.447 174.866 222.516 174.805C227.629 174.297 231.512 173.332 236.625 172.821C238.523 172.63 240.497 172.415 242.116 171.406C244.124 170.155 245.249 167.899 246.142 165.71C248.354 160.291 249.779 154.318 248.617 148.578C247.662 143.871 245 139.487 245.014 134.684C245.014 131.824 245.989 129.053 247.141 126.435C248.361 123.667 249.953 120.838 252.632 119.434C255.311 118.03 259.589 117.958 262.613 118.367Z" fill="#009688"/>
<path opacity="0.08" d="M262.613 118.367C265.227 118.708 267.255 120.818 268.748 122.986C272.938 129.019 274.744 136.334 276.755 143.4C279.255 152.188 282.195 160.837 285.574 169.347C286.301 171.313 287.186 173.217 288.219 175.04C289.061 176.448 290.083 177.801 290.455 179.4C291.355 183.265 288.168 186.899 284.844 189.053C283.073 190.247 281.138 191.179 279.101 191.821C277.117 192.414 275.048 192.639 272.992 192.864L254.071 194.909C245.361 195.857 236.574 196.804 227.861 195.891C227.312 193.982 228.389 192.632 228.311 190.645C228.256 189.224 227.629 187.901 227.07 186.592C226.039 184.261 225.358 181.79 225.049 179.26C224.95 178.329 224.916 177.375 224.561 176.509C224.207 175.643 223.447 174.866 222.516 174.805C227.629 174.297 231.512 173.332 236.625 172.821C238.523 172.63 240.497 172.415 242.116 171.406C244.124 170.155 245.249 167.899 246.142 165.71C248.354 160.291 249.779 154.318 248.617 148.578C247.662 143.871 245 139.487 245.014 134.684C245.014 131.824 245.989 129.053 247.141 126.435C248.361 123.667 249.953 120.838 252.632 119.434C255.311 118.03 259.589 117.958 262.613 118.367Z" fill="black"/>
<path d="M144.123 113.939C145.36 111.001 146.618 107.967 146.652 104.78C146.69 101.334 145.289 98.0614 144.219 94.789C142.895 90.7852 142.014 86.6486 141.59 82.453C141.503 82.051 141.563 81.6309 141.761 81.2701C142.044 80.8713 142.589 80.7895 143.07 80.6838C145.429 80.1453 147.211 78.2398 148.684 76.3207C150.968 73.3569 152.897 70.1352 154.431 66.7218C155.559 64.2096 157.086 61.1452 159.841 61.1213C158.732 66.3296 157.357 71.4778 155.723 76.5457C158.603 75.8094 161.34 74.7391 164.221 74.0028C164.785 73.8247 165.375 73.7463 165.966 73.771C167.691 73.9517 168.748 76.2866 167.745 77.7012C169.153 79.351 171.495 79.7942 173.336 80.9259C175.176 82.0576 176.499 84.8595 174.863 86.2809C174.542 86.557 174.137 86.7513 173.905 87.1058C173.114 88.3261 175.05 89.7271 174.89 91.1724C174.76 92.3552 173.244 92.9074 172.095 92.5938C170.946 92.2802 170.05 91.4212 169.027 90.7906C168.004 90.16 166.668 89.768 165.676 90.4225C165.41 93.6301 165.124 96.899 163.737 99.8203C163.229 100.887 162.578 101.886 162.169 102.994C161.778 104.202 161.535 105.453 161.446 106.719L160.209 118.033C154.305 119.216 149.011 117.447 144.123 113.939Z" fill="#EFB7B9"/>
<path d="M142.681 124.08L141.594 116.721C141.49 116.121 141.432 115.515 141.42 114.907C141.42 113.203 142.17 111.577 142.896 110.026C148.912 112.835 155.416 113.833 162.053 113.837C162.929 113.837 163.928 113.755 164.473 113.07C165.601 114.369 165.635 116.458 165.155 118.108C164.674 119.758 163.75 121.244 163.137 122.853C162.827 123.667 162.574 124.557 161.981 125.184C161.061 126.176 159.568 126.347 158.211 126.34C156.784 126.331 155.36 126.195 153.957 125.934C150.323 125.259 146.315 123.429 142.681 124.08Z" fill="white"/>
<path d="M165.121 123.78C160.451 123.248 155.812 122.498 151.203 121.53C148.943 121.056 146.663 120.528 144.358 120.62C142.858 120.681 141.246 120.981 139.927 120.238C141.212 124.612 141.29 129.22 139.753 133.512C138.843 136.068 137.456 138.451 136.788 141.082C135.397 146.588 137.306 152.59 135.567 157.996C135.383 158.703 135.022 159.351 134.517 159.878C133.986 160.365 133.26 160.618 132.769 161.146C132.046 161.923 132.002 163.092 131.998 164.153L131.968 173.543C131.947 179.522 132.026 185.862 135.182 190.928C138.782 196.723 146.359 199.726 152.955 197.963C154.709 197.515 156.352 196.711 157.782 195.601C160.072 193.781 161.531 191.149 162.96 188.586C164.664 185.518 166.368 182.382 166.917 178.929C167.306 176.485 167.087 173.99 166.808 171.532C165.267 157.898 161.923 144.379 162.643 130.693C162.75 128.191 163.614 125.78 165.121 123.78V123.78Z" fill="#009688"/>
<path d="M184.639 180.364C182.27 180.501 179.884 180.637 177.525 180.364C175.821 180.16 174.157 179.74 172.466 179.454C167.849 178.708 163.125 178.971 158.619 180.223C154.112 181.475 149.93 183.687 146.359 186.708C145.05 187.826 143.728 189.54 144.45 191.105C145.228 192.789 147.603 192.741 149.434 192.428C147.458 193.371 145.713 194.736 144.321 196.426C143.809 197.05 143.325 197.789 143.424 198.597C143.632 200.285 145.923 200.591 147.617 200.445C147.065 201.038 147.436 202.088 148.139 202.49C148.841 202.892 149.713 202.81 150.508 202.664C152.263 202.342 153.96 201.755 155.539 200.922C155.218 201.757 155.774 202.735 156.561 203.151C157.349 203.567 158.307 203.536 159.19 203.393C163.355 202.712 166.832 199.814 170.895 198.676C177.392 196.859 184.189 199.756 190.941 199.961C193.055 200.026 195.223 199.811 197.149 198.938C199.511 197.864 201.416 195.85 203.912 195.134C206.683 194.343 209.863 195.253 212.399 193.886C214.243 192.895 212.58 185.249 212.109 183.776C211.247 181.083 210.381 179.297 207.508 179.025C200.237 178.312 191.964 179.942 184.639 180.364Z" fill="#EFB7B9"/>
<path d="M202.776 178.278C202.776 178.278 213.783 187.594 207.433 197.759L219.704 193.522V184.628C219.704 184.206 215.044 177.855 215.044 177.855L209.539 177.007L202.776 178.278Z" fill="white"/>
<path d="M87.5319 177.702H91.6598C93.9199 177.702 96.0875 178.6 97.6856 180.198C99.2837 181.796 100.182 183.964 100.182 186.224V198.874H79.0101V186.224C79.0101 185.105 79.2306 183.997 79.6588 182.963C80.0871 181.929 80.7148 180.989 81.5061 180.198C82.2974 179.407 83.2368 178.779 84.2707 178.351C85.3047 177.923 86.4128 177.702 87.5319 177.702Z" fill="#3F3D56"/>
<path opacity="0.1" d="M87.5319 177.702H91.6598C93.9199 177.702 96.0875 178.6 97.6856 180.198C99.2837 181.796 100.182 183.964 100.182 186.224V198.874H79.0101V186.224C79.0101 185.105 79.2306 183.997 79.6588 182.963C80.0871 181.929 80.7148 180.989 81.5061 180.198C82.2974 179.407 83.2368 178.779 84.2707 178.351C85.3047 177.923 86.4128 177.702 87.5319 177.702Z" fill="black"/>
<path d="M88.7488 182.358C89.6844 182.358 90.4429 181.6 90.4429 180.664C90.4429 179.729 89.6844 178.97 88.7488 178.97C87.8132 178.97 87.0547 179.729 87.0547 180.664C87.0547 181.6 87.8132 182.358 88.7488 182.358Z" fill="#3F3D56"/>
<path d="M88.7488 180.242C89.6844 180.242 90.4429 179.483 90.4429 178.547C90.4429 177.612 89.6844 176.853 88.7488 176.853C87.8132 176.853 87.0547 177.612 87.0547 178.547C87.0547 179.483 87.8132 180.242 88.7488 180.242Z" fill="#3F3D56"/>
<path d="M88.7488 178.125C89.6844 178.125 90.4429 177.366 90.4429 176.431C90.4429 175.495 89.6844 174.737 88.7488 174.737C87.8132 174.737 87.0547 175.495 87.0547 176.431C87.0547 177.366 87.8132 178.125 88.7488 178.125Z" fill="#3F3D56"/>
<path d="M88.7488 176.008C89.6844 176.008 90.4429 175.25 90.4429 174.314C90.4429 173.378 89.6844 172.62 88.7488 172.62C87.8132 172.62 87.0547 173.378 87.0547 174.314C87.0547 175.25 87.8132 176.008 88.7488 176.008Z" fill="#3F3D56"/>
<path d="M88.7488 173.891C89.6844 173.891 90.4429 173.133 90.4429 172.197C90.4429 171.261 89.6844 170.503 88.7488 170.503C87.8132 170.503 87.0547 171.261 87.0547 172.197C87.0547 173.133 87.8132 173.891 88.7488 173.891Z" fill="#3F3D56"/>
<path d="M88.7488 171.774C89.6844 171.774 90.4429 171.016 90.4429 170.08C90.4429 169.145 89.6844 168.386 88.7488 168.386C87.8132 168.386 87.0547 169.145 87.0547 170.08C87.0547 171.016 87.8132 171.774 88.7488 171.774Z" fill="#3F3D56"/>
<path d="M88.7488 169.654C89.6844 169.654 90.4429 168.896 90.4429 167.96C90.4429 167.024 89.6844 166.266 88.7488 166.266C87.8132 166.266 87.0547 167.024 87.0547 167.96C87.0547 168.896 87.8132 169.654 88.7488 169.654Z" fill="#3F3D56"/>
<path d="M91.2917 170.503C92.2273 170.503 92.9858 169.744 92.9858 168.809C92.9858 167.873 92.2273 167.115 91.2917 167.115C90.356 167.115 89.5975 167.873 89.5975 168.809C89.5975 169.744 90.356 170.503 91.2917 170.503Z" fill="#3F3D56"/>
<path d="M92.9859 169.654C93.9215 169.654 94.68 168.896 94.68 167.96C94.68 167.024 93.9215 166.266 92.9859 166.266C92.0502 166.266 91.2917 167.024 91.2917 167.96C91.2917 168.896 92.0502 169.654 92.9859 169.654Z" fill="#3F3D56"/>
<path d="M94.68 168.809C95.6156 168.809 96.3741 168.05 96.3741 167.115C96.3741 166.179 95.6156 165.421 94.68 165.421C93.7443 165.421 92.9858 166.179 92.9858 167.115C92.9858 168.05 93.7443 168.809 94.68 168.809Z" fill="#3F3D56"/>
<path d="M88.7488 167.537C89.6844 167.537 90.4429 166.779 90.4429 165.843C90.4429 164.908 89.6844 164.149 88.7488 164.149C87.8132 164.149 87.0547 164.908 87.0547 165.843C87.0547 166.779 87.8132 167.537 88.7488 167.537Z" fill="#3F3D56"/>
<path d="M88.7488 165.42C89.6844 165.42 90.4429 164.662 90.4429 163.726C90.4429 162.791 89.6844 162.032 88.7488 162.032C87.8132 162.032 87.0547 162.791 87.0547 163.726C87.0547 164.662 87.8132 165.42 88.7488 165.42Z" fill="#3F3D56"/>
<path d="M88.7488 163.304C89.6844 163.304 90.4429 162.545 90.4429 161.61C90.4429 160.674 89.6844 159.916 88.7488 159.916C87.8132 159.916 87.0547 160.674 87.0547 161.61C87.0547 162.545 87.8132 163.304 88.7488 163.304Z" fill="#3F3D56"/>
<path d="M88.7488 161.187C89.6844 161.187 90.4429 160.429 90.4429 159.493C90.4429 158.557 89.6844 157.799 88.7488 157.799C87.8132 157.799 87.0547 158.557 87.0547 159.493C87.0547 160.429 87.8132 161.187 88.7488 161.187Z" fill="#3F3D56"/>
<path d="M95.7844 154.029C95.3617 154.09 94.939 154.134 94.5164 154.162C94.9093 153.819 95.2741 153.445 95.6071 153.044C95.3724 152.332 95.0274 151.661 94.5845 151.056C94.1646 151.292 93.7004 151.439 93.2211 151.486C92.8018 151.547 92.3791 151.592 91.9564 151.622C92.512 151.169 93.0302 150.487 93.5756 149.918C92.3536 148.81 90.7881 148.156 89.1414 148.066C87.4948 147.975 85.8669 148.453 84.5306 149.419C83.1942 150.386 82.2306 151.782 81.8012 153.374C81.3718 154.967 81.5026 156.658 82.1718 158.165C82.841 159.673 84.0078 160.904 85.4769 161.654C86.9459 162.403 88.6279 162.625 90.2411 162.282C91.8542 161.939 93.3005 161.052 94.3376 159.77C95.3747 158.488 95.9397 156.888 95.9378 155.239C95.9379 154.824 95.9014 154.41 95.8287 154.002L95.7844 154.029Z" fill="#009688"/>
<path d="M101.433 162.445C101.001 162.711 100.513 162.873 100.008 162.919C99.5885 162.98 99.1658 163.028 98.7431 163.055C99.1923 162.652 99.6116 162.217 99.9975 161.753C98.9761 161.487 97.8921 161.611 96.9574 162.101C96.0227 162.592 95.3045 163.413 94.9433 164.405C94.5821 165.397 94.6037 166.488 95.0041 167.464C95.4044 168.441 96.1547 169.233 97.1081 169.686C98.0616 170.139 99.1497 170.22 100.16 169.914C101.17 169.607 102.029 168.935 102.57 168.028C103.11 167.121 103.293 166.046 103.083 165.011C102.873 163.977 102.284 163.058 101.433 162.435V162.445Z" fill="#009688"/>
<path d="M86.2094 170.503C87.145 170.503 87.9035 169.744 87.9035 168.809C87.9035 167.873 87.145 167.115 86.2094 167.115C85.2737 167.115 84.5153 167.873 84.5153 168.809C84.5153 169.744 85.2737 170.503 86.2094 170.503Z" fill="#3F3D56"/>
<path d="M84.5152 169.654C85.4508 169.654 86.2093 168.896 86.2093 167.96C86.2093 167.024 85.4508 166.266 84.5152 166.266C83.5795 166.266 82.821 167.024 82.821 167.96C82.821 168.896 83.5795 169.654 84.5152 169.654Z" fill="#3F3D56"/>
<path d="M82.8211 168.809C83.7567 168.809 84.5152 168.05 84.5152 167.115C84.5152 166.179 83.7567 165.421 82.8211 165.421C81.8854 165.421 81.127 166.179 81.127 167.115C81.127 168.05 81.8854 168.809 82.8211 168.809Z" fill="#3F3D56"/>
<path d="M76.0684 162.445C76.5004 162.711 76.9881 162.873 77.4933 162.919C77.9125 162.98 78.3352 163.028 78.7579 163.055C78.3078 162.653 77.8885 162.218 77.5035 161.753C78.5249 161.487 79.6089 161.611 80.5436 162.101C81.4783 162.592 82.1965 163.413 82.5577 164.405C82.9189 165.397 82.8972 166.488 82.4969 167.464C82.0966 168.441 81.3463 169.233 80.3929 169.686C79.4394 170.139 78.3513 170.22 77.3413 169.914C76.3313 169.607 75.472 168.935 74.9313 168.028C74.3907 167.121 74.2076 166.046 74.4179 165.011C74.6282 163.977 75.2167 163.058 76.0684 162.435V162.445Z" fill="#009688"/>
<path d="M87.5318 178.957H91.6598C93.9199 178.957 96.0874 179.854 97.6855 181.453C99.2837 183.051 100.182 185.218 100.182 187.478V198.683C100.182 199.066 100.029 199.434 99.7582 199.705C99.4872 199.976 99.1195 200.128 98.7362 200.128H80.4452C80.0619 200.128 79.6942 199.976 79.4232 199.705C79.1521 199.434 78.9999 199.066 78.9999 198.683V187.478C78.9999 186.358 79.2206 185.249 79.6495 184.215C80.0784 183.18 80.7071 182.24 81.4995 181.449C82.2919 180.657 83.2325 180.03 84.2676 179.602C85.3027 179.175 86.4119 178.955 87.5318 178.957V178.957Z" fill="#3F3D56"/>
<g opacity="0.1">
<path opacity="0.1" d="M95.9003 154.492C95.7287 154.676 95.5466 154.849 95.3549 155.011C95.5492 155.011 95.74 154.98 95.9343 154.959C95.9275 154.803 95.9173 154.646 95.9003 154.492Z" fill="black"/>
<path opacity="0.1" d="M92.8119 152.468C93.238 152.44 93.6572 152.396 94.0799 152.335C94.4591 152.287 94.8297 152.186 95.1809 152.035C95.0085 151.694 94.8102 151.367 94.5878 151.056C94.3758 151.185 94.1462 151.283 93.9061 151.346C93.5718 151.749 93.2059 152.124 92.8119 152.468Z" fill="black"/>
<path opacity="0.1" d="M82.3984 156.105C82.3958 154.812 82.7419 153.543 83.4 152.431C84.0582 151.319 85.0041 150.405 86.1382 149.785C87.2722 149.165 88.5524 148.863 89.8439 148.91C91.1354 148.957 92.3904 149.351 93.4766 150.051L93.5857 149.935C92.8768 149.304 92.05 148.82 91.1531 148.51C90.2562 148.2 89.3068 148.071 88.3597 148.13C87.4126 148.188 86.4865 148.434 85.6347 148.852C84.7829 149.271 84.0223 149.853 83.3967 150.567C82.7711 151.28 82.2929 152.11 81.9897 153.01C81.6864 153.909 81.564 154.859 81.6296 155.806C81.6953 156.752 81.9476 157.677 82.372 158.525C82.7965 159.374 83.3847 160.13 84.1027 160.751C83.0003 159.454 82.3961 157.807 82.3984 156.105Z" fill="black"/>
</g>
<g opacity="0.1">
<path opacity="0.1" d="M98.743 163.901C99.1657 163.873 99.5884 163.829 100.008 163.768C100.513 163.721 101.001 163.557 101.433 163.29C101.911 163.643 102.31 164.092 102.604 164.609C102.897 165.126 103.079 165.698 103.137 166.29C103.153 166.142 103.161 165.993 103.161 165.844C103.164 165.181 103.011 164.528 102.715 163.936C102.419 163.344 101.988 162.829 101.456 162.435C101.024 162.701 100.537 162.863 100.032 162.909L99.6907 162.953C99.3998 163.293 99.083 163.61 98.743 163.901Z" fill="black"/>
<path opacity="0.1" d="M98.9135 162.455C99.0549 162.457 99.1961 162.467 99.3362 162.486C99.5578 162.251 99.7759 161.998 99.9975 161.753C99.3708 161.586 98.714 161.565 98.078 161.692C97.442 161.819 96.8437 162.091 96.3296 162.486C95.8155 162.882 95.3993 163.39 95.1132 163.973C94.8271 164.555 94.6789 165.195 94.6799 165.843C94.6799 165.987 94.6799 166.126 94.7004 166.266C94.8052 165.222 95.2943 164.253 96.0729 163.549C96.8514 162.845 97.8638 162.455 98.9135 162.455V162.455Z" fill="black"/>
</g>
<g opacity="0.1">
<path opacity="0.1" d="M78.7579 163.901C78.3352 163.873 77.9126 163.829 77.4933 163.768C76.9879 163.721 76.5002 163.557 76.0685 163.29C75.5899 163.643 75.1908 164.092 74.8972 164.609C74.6035 165.126 74.4219 165.698 74.3641 166.29C74.3476 166.142 74.3396 165.993 74.3403 165.844C74.337 165.181 74.4896 164.528 74.7857 163.936C75.0818 163.344 75.513 162.829 76.0446 162.435C76.4766 162.701 76.9643 162.863 77.4694 162.909L77.8103 162.953C78.0994 163.295 78.4163 163.612 78.7579 163.901V163.901Z" fill="black"/>
<path opacity="0.1" d="M78.5875 162.455C78.445 162.457 78.3027 162.467 78.1614 162.486C77.9433 162.251 77.7251 161.998 77.5035 161.753C78.1302 161.586 78.787 161.565 79.423 161.692C80.0591 161.819 80.6573 162.091 81.1714 162.486C81.6856 162.882 82.1018 163.39 82.3878 163.973C82.6739 164.555 82.8221 165.195 82.8211 165.843C82.8211 165.987 82.8211 166.126 82.8006 166.266C82.6958 165.222 82.2067 164.253 81.4282 163.549C80.6497 162.845 79.6373 162.455 78.5875 162.455V162.455Z" fill="black"/>
</g>
<path d="M67.1001 204.225H33.7972C33.422 204.225 33.0622 204.076 32.7969 203.811C32.5316 203.546 32.3826 203.186 32.3826 202.811V187.049C32.3825 186.81 32.4429 186.575 32.558 186.366C32.6731 186.157 32.8393 185.98 33.0411 185.853C33.2429 185.725 33.4736 185.651 33.7119 185.636C33.9502 185.622 34.1883 185.668 34.4039 185.771C43.9721 190.311 54.28 191.869 66.4457 185.842C66.6613 185.736 66.9005 185.686 67.1407 185.697C67.3808 185.709 67.6141 185.781 67.8186 185.908C68.0232 186.034 68.1922 186.211 68.3098 186.42C68.4274 186.63 68.4897 186.866 68.4909 187.107V202.787C68.494 202.972 68.4606 203.157 68.3924 203.33C68.3242 203.503 68.2226 203.66 68.0935 203.794C67.9643 203.928 67.8102 204.034 67.6397 204.108C67.4693 204.182 67.2859 204.222 67.1001 204.225V204.225Z" fill="#009688"/>
<path opacity="0.1" d="M67.1001 204.225H33.7972C33.422 204.225 33.0622 204.076 32.7969 203.811C32.5316 203.546 32.3826 203.186 32.3826 202.811V187.049C32.3825 186.81 32.4429 186.575 32.558 186.366C32.6731 186.157 32.8393 185.98 33.0411 185.853C33.2429 185.725 33.4736 185.651 33.7119 185.636C33.9502 185.622 34.1883 185.668 34.4039 185.771C43.9721 190.311 54.28 191.869 66.4457 185.842C66.6613 185.736 66.9005 185.686 67.1407 185.697C67.3808 185.709 67.6141 185.781 67.8186 185.908C68.0232 186.034 68.1922 186.211 68.3098 186.42C68.4274 186.63 68.4897 186.866 68.4909 187.107V202.787C68.494 202.972 68.4606 203.157 68.3924 203.33C68.3242 203.503 68.2226 203.66 68.0935 203.794C67.9643 203.928 67.8102 204.034 67.6397 204.108C67.4693 204.182 67.2859 204.222 67.1001 204.225V204.225Z" fill="black"/>
<path d="M50.2169 192.243C51.3051 192.243 52.1872 191.088 52.1872 189.663C52.1872 188.238 51.3051 187.083 50.2169 187.083C49.1288 187.083 48.2467 188.238 48.2467 189.663C48.2467 191.088 49.1288 192.243 50.2169 192.243Z" fill="#3F3D56"/>
<path d="M50.2169 189.09C51.3051 189.09 52.1872 187.935 52.1872 186.51C52.1872 185.085 51.3051 183.93 50.2169 183.93C49.1288 183.93 48.2467 185.085 48.2467 186.51C48.2467 187.935 49.1288 189.09 50.2169 189.09Z" fill="#3F3D56"/>
<path d="M50.2169 185.934C51.3051 185.934 52.1872 184.779 52.1872 183.354C52.1872 181.929 51.3051 180.773 50.2169 180.773C49.1288 180.773 48.2467 181.929 48.2467 183.354C48.2467 184.779 49.1288 185.934 50.2169 185.934Z" fill="#3F3D56"/>
<path d="M50.2169 182.781C51.3051 182.781 52.1872 181.626 52.1872 180.201C52.1872 178.776 51.3051 177.62 50.2169 177.62C49.1288 177.62 48.2467 178.776 48.2467 180.201C48.2467 181.626 49.1288 182.781 50.2169 182.781Z" fill="#3F3D56"/>
<path d="M50.2169 179.625C51.3051 179.625 52.1872 178.469 52.1872 177.044C52.1872 175.619 51.3051 174.464 50.2169 174.464C49.1288 174.464 48.2467 175.619 48.2467 177.044C48.2467 178.469 49.1288 179.625 50.2169 179.625Z" fill="#3F3D56"/>
<path d="M50.2169 176.468C51.3051 176.468 52.1872 175.313 52.1872 173.888C52.1872 172.463 51.3051 171.307 50.2169 171.307C49.1288 171.307 48.2467 172.463 48.2467 173.888C48.2467 175.313 49.1288 176.468 50.2169 176.468Z" fill="#3F3D56"/>
<path d="M50.2169 173.315C51.3051 173.315 52.1872 172.16 52.1872 170.735C52.1872 169.31 51.3051 168.154 50.2169 168.154C49.1288 168.154 48.2467 169.31 48.2467 170.735C48.2467 172.16 49.1288 173.315 50.2169 173.315Z" fill="#3F3D56"/>
<path d="M57.607 149.144C57.8745 148.8 58.1193 148.439 58.3398 148.063L53.1586 147.211L58.7625 147.252C59.3032 146.081 59.5981 144.811 59.6292 143.521C59.6603 142.232 59.4268 140.949 58.9432 139.753L51.427 143.653L58.3603 138.54C57.7111 137.417 56.8376 136.44 55.7944 135.669C54.7511 134.899 53.5603 134.352 52.2963 134.062C51.0323 133.772 49.722 133.745 48.4472 133.983C47.1724 134.222 45.9604 134.72 44.8866 135.447C43.8128 136.174 42.9003 137.115 42.2059 138.21C41.5115 139.306 41.0501 140.532 40.8505 141.814C40.6509 143.095 40.7173 144.404 41.0456 145.659C41.3739 146.913 41.957 148.087 42.7587 149.107C42.3375 149.639 41.9762 150.216 41.6815 150.828L48.4035 154.359L41.2452 151.939C40.7435 153.427 40.6201 155.016 40.8861 156.563C41.1521 158.11 41.7992 159.567 42.7689 160.802C41.6731 162.195 40.9914 163.869 40.8018 165.631C40.6122 167.393 40.9223 169.174 41.6968 170.768C42.4712 172.362 43.6787 173.707 45.1812 174.647C46.6837 175.588 48.4205 176.087 50.1931 176.087C51.9657 176.087 53.7025 175.588 55.2049 174.647C56.7074 173.707 57.9149 172.362 58.6894 170.768C59.4638 169.174 59.774 167.393 59.5844 165.631C59.3948 163.869 58.7131 162.195 57.6172 160.802C58.9265 159.137 59.6383 157.081 59.6383 154.963C59.6383 152.845 58.9265 150.788 57.6172 149.124L57.607 149.144Z" fill="#009688"/>
<path opacity="0.1" d="M40.7305 154.983C40.7274 157.102 41.4396 159.159 42.7518 160.822C41.656 162.215 40.9743 163.889 40.7847 165.651C40.5951 167.414 40.9052 169.194 41.6797 170.788C42.4541 172.383 43.6616 173.727 45.1641 174.668C46.6666 175.608 48.4034 176.107 50.176 176.107C51.9486 176.107 53.6854 175.608 55.1879 174.668C56.6903 173.727 57.8978 172.383 58.6723 170.788C59.4467 169.194 59.7569 167.414 59.5673 165.651C59.3777 163.889 58.696 162.215 57.6001 160.822C58.8647 159.217 40.7305 153.923 40.7305 154.983Z" fill="black"/>
<path d="M67.1001 205.06H33.7972C33.422 205.06 33.0622 204.911 32.7969 204.646C32.5316 204.381 32.3826 204.021 32.3826 203.646V187.049C32.3825 186.81 32.4429 186.575 32.558 186.366C32.6731 186.157 32.8393 185.98 33.0411 185.853C33.2429 185.725 33.4736 185.651 33.7119 185.636C33.9502 185.622 34.1883 185.668 34.4039 185.771C43.9721 190.311 51.5599 195.605 66.4457 185.842C67.3285 185.263 68.4909 186.053 68.4909 187.107V203.639C68.4927 204.011 68.3478 204.369 68.0874 204.635C67.8271 204.901 67.4724 205.054 67.1001 205.06Z" fill="#009688"/>
<path d="M314.224 200.367L265.091 206.867L262.633 207.191L238.612 194.36V191.357L313.678 183.17L314.224 200.367Z" fill="#9C9CA1"/>
<path d="M252.533 195.724L305.76 189.448L305.215 199.276L263.755 202.316L252.533 195.724Z" fill="#939498"/>
<path opacity="0.4" d="M265.091 203.639V206.864L262.633 207.204L238.609 194.36V191.357L261.539 203.629C261.539 203.629 264.545 203.912 265.091 203.639Z" fill="black"/>
<path d="M274.523 152.457L263.492 203.605C263.381 204.117 263.395 204.648 263.532 205.154C263.669 205.659 263.926 206.125 264.281 206.51C264.636 206.895 265.079 207.19 265.572 207.368C266.064 207.547 266.593 207.604 267.112 207.535L336.898 198.297C337.506 198.217 338.079 197.968 338.552 197.577C339.025 197.186 339.378 196.67 339.571 196.089L354.627 150.685C354.793 150.181 354.835 149.644 354.748 149.121C354.66 148.598 354.447 148.103 354.127 147.681C353.806 147.258 353.387 146.92 352.907 146.695C352.426 146.47 351.898 146.365 351.368 146.39L277.563 149.894C276.845 149.928 276.159 150.197 275.609 150.661C275.059 151.124 274.678 151.755 274.523 152.457V152.457Z" fill="#3F3D56"/>
<path d="M312.869 171.326C313.04 169.698 312.33 168.288 311.284 168.178C310.237 168.068 309.25 169.299 309.079 170.928C308.908 172.557 309.617 173.967 310.664 174.077C311.711 174.187 312.698 172.955 312.869 171.326Z" fill="white"/>
</g>
<defs>
<clipPath id="clip0">
<rect width="392" height="213.892" fill="white"/>
</clipPath>
</defs>
</svg>
